<svg width="14" height="15" viewBox="0 0 14 15" fill="none" xmlns="http://www.w3.org/2000/svg">
<g clip-path="url(#clip0_1002_247)">
<path d="M9.44087 0.75H4.3385C1.99056 0.75 0.086525 2.63916 0.086525 4.96875V10.0312C0.086525 12.3608 1.99056 14.25 4.3385 14.25H9.44087C11.7888 14.25 13.6928 12.3608 13.6928 10.0312V4.96875C13.6928 2.63916 11.7888 0.75 9.44087 0.75ZM12.4173 10.0312C12.4173 11.6597 11.0821 12.9844 9.44087 12.9844H4.3385C2.69724 12.9844 1.36212 11.6597 1.36212 10.0312V4.96875C1.36212 3.34031 2.69724 2.01562 4.3385 2.01562H9.44087C11.0821 2.01562 12.4173 3.34031 12.4173 4.96875V10.0312Z" fill="black"/>
<path d="M6.8896 4.125C5.01107 4.125 3.48801 5.63616 3.48801 7.5C3.48801 9.36384 5.01107 10.875 6.8896 10.875C8.76812 10.875 10.2912 9.36384 10.2912 7.5C10.2912 5.63616 8.76812 4.125 6.8896 4.125ZM6.8896 9.60937C5.71775 9.60937 4.76361 8.66269 4.76361 7.5C4.76361 6.33647 5.71775 5.39062 6.8896 5.39062C8.06144 5.39062 9.01558 6.33647 9.01558 7.5C9.01558 8.66269 8.06144 9.60937 6.8896 9.60937Z" fill="black"/>
<path d="M10.6584 4.30879C10.9007 4.24799 11.0469 4.00328 10.9849 3.76221C10.923 3.52115 10.6763 3.37501 10.434 3.43581C10.1918 3.49661 10.0456 3.74132 10.1075 3.98239C10.1695 4.22345 10.4161 4.36958 10.6584 4.30879Z" fill="black"/>
</g>
<defs>
<clipPath id="clip0_1002_247">
<rect width="13.6063" height="13.5" fill="white" transform="translate(0.086525 0.75)"/>
</clipPath>
</defs>
</svg>
