<svg width="114" height="79" viewBox="0 0 114 79" fill="none" xmlns="http://www.w3.org/2000/svg">
<circle cx="80.2588" cy="57.2812" r="4" transform="rotate(90 80.2588 57.2812)" fill="#06C1A2"/>
<circle cx="73.2465" cy="73.6484" r="4" transform="rotate(135 73.2465 73.6484)" fill="#06C1A2"/>
<circle cx="56.7158" cy="80.2598" r="4" transform="rotate(-180 56.7158 80.2598)" fill="#06C1A2"/>
<circle cx="40.3515" cy="73.2474" r="4" transform="rotate(-135 40.3515 73.2474)" fill="#06C1A2"/>
<circle cx="33.7373" cy="56.7168" r="4" transform="rotate(-90 33.7373 56.7168)" fill="#06C1A2"/>
<circle cx="40.7516" cy="40.3516" r="4" transform="rotate(-45 40.7516 40.3516)" fill="#06C1A2"/>
<circle cx="57.2812" cy="33.7383" r="4" fill="#06C1A2"/>
<circle cx="73.6465" cy="40.7526" r="4" transform="rotate(45 73.6465 40.7526)" fill="#06C1A2"/>
<circle cx="84.1621" cy="30.2369" r="3.5" transform="rotate(45 84.1621 30.2369)" stroke="#06C1A2"/>
<circle cx="92.3352" cy="42.6696" r="3.5" transform="rotate(67.5 92.3352 42.6696)" stroke="#06C1A2"/>
<circle cx="95.1299" cy="57.2832" r="3.5" transform="rotate(90 95.1299 57.2832)" stroke="#06C1A2"/>
<circle cx="92.1195" cy="71.8523" r="3.5" transform="rotate(112.5 92.1195 71.8523)" stroke="#06C1A2"/>
<circle cx="83.7631" cy="84.1602" r="3.5" transform="rotate(135 83.7631 84.1602)" stroke="#06C1A2"/>
<circle cx="29.8379" cy="83.7631" r="3.5" transform="rotate(-135 29.8379 83.7631)" stroke="#06C1A2"/>
<circle cx="21.6638" cy="71.3284" r="3.5" transform="rotate(-112.5 21.6638 71.3284)" stroke="#06C1A2"/>
<circle cx="18.8691" cy="56.7168" r="3.5" transform="rotate(-90 18.8691 56.7168)" stroke="#06C1A2"/>
<circle cx="21.8805" cy="42.1458" r="3.5" transform="rotate(-67.5 21.8805 42.1458)" stroke="#06C1A2"/>
<circle cx="30.2369" cy="29.8379" r="3.5" transform="rotate(-45 30.2369 29.8379)" stroke="#06C1A2"/>
<circle cx="42.6696" cy="21.6648" r="3.5" transform="rotate(-22.5 42.6696 21.6648)" stroke="#06C1A2"/>
<circle cx="57.2812" cy="18.8691" r="3.5" stroke="#06C1A2"/>
<circle cx="71.8533" cy="21.8805" r="3.5" transform="rotate(22.5 71.8533 21.8805)" stroke="#06C1A2"/>
<circle cx="83.7444" cy="11.2434" r="4" transform="rotate(30 83.7444 11.2434)" fill="#06C1A2"/>
<circle cx="94.6758" cy="19.7233" r="4" transform="rotate(45 94.6758 19.7233)" fill="#06C1A2"/>
<circle cx="103.042" cy="30.7454" r="4" transform="rotate(60 103.042 30.7454)" fill="#06C1A2"/>
<circle cx="108.267" cy="43.5552" r="4" transform="rotate(75 108.267 43.5552)" fill="#06C1A2"/>
<circle cx="110" cy="57.2832" r="4" transform="rotate(90 110 57.2832)" fill="#06C1A2"/>
<circle cx="108.122" cy="70.9905" r="4" transform="rotate(105 108.122 70.9905)" fill="#06C1A2"/>
<circle cx="102.758" cy="83.7454" r="4" transform="rotate(120 102.758 83.7454)" fill="#06C1A2"/>
<circle cx="10.9592" cy="83.2546" r="4" transform="rotate(-120 10.9592 83.2546)" fill="#06C1A2"/>
<circle cx="5.73272" cy="70.4448" r="4" transform="rotate(-105 5.73272 70.4448)" fill="#06C1A2"/>
<circle cx="4" cy="56.7168" r="4" transform="rotate(-90 4 56.7168)" fill="#06C1A2"/>
<circle cx="5.87847" cy="43.0095" r="4" transform="rotate(-75 5.87847 43.0095)" fill="#06C1A2"/>
<circle cx="11.2424" cy="30.2546" r="4" transform="rotate(-60 11.2424 30.2546)" fill="#06C1A2"/>
<circle cx="19.7233" cy="19.3242" r="4" transform="rotate(-45 19.7233 19.3242)" fill="#06C1A2"/>
<circle cx="30.7434" cy="10.9602" r="4" transform="rotate(-30 30.7434 10.9602)" fill="#06C1A2"/>
<circle cx="43.5552" cy="5.73272" r="4" transform="rotate(-15 43.5552 5.73272)" fill="#06C1A2"/>
<circle cx="57.2832" cy="4" r="4" fill="#06C1A2"/>
<circle cx="70.9915" cy="5.87945" r="4" transform="rotate(15 70.9915 5.87945)" fill="#06C1A2"/>
</svg>
