<svg width="578" height="83" viewBox="0 0 578 83" fill="none" xmlns="http://www.w3.org/2000/svg">
<path d="M526.109 164.984C469.555 159.209 380.888 147.521 425.996 110.626C483.399 63.6748 623.675 75.9748 561.374 39.7362" stroke="#FD0073" stroke-width="1.5"/>
<path d="M510.323 156.463C453.768 150.688 365.102 139 410.21 102.105C467.613 55.1534 607.889 67.4533 545.587 31.2147" stroke="#FD0073" stroke-width="1.5"/>
<path d="M493.786 148.615C437.231 142.84 348.565 131.152 393.673 94.2572C451.076 47.3057 591.351 59.6057 529.05 23.367" stroke="#FD0073" stroke-width="1.5"/>
<path d="M476.418 141.633C419.864 135.858 331.197 124.17 376.305 87.2748C433.709 40.3233 573.984 52.6233 511.683 16.3846" stroke="#FD0073" stroke-width="1.5"/>
<path d="M458.184 135.742C401.63 129.967 312.963 118.279 358.071 81.3842C415.474 34.4327 555.75 46.7326 493.449 10.494" stroke="#FD0073" stroke-width="1.5"/>
<path d="M439.137 131.176C382.583 125.401 293.916 113.713 339.024 76.8178C396.428 29.8662 536.703 42.1662 474.402 5.92757" stroke="#FD0073" stroke-width="1.5"/>
<path d="M419.448 128.09C362.893 122.315 274.227 110.627 319.335 73.7319C376.738 26.7803 517.014 39.0803 454.712 2.84163" stroke="#FD0073" stroke-width="1.5"/>
<path d="M399.369 126.498C342.814 120.723 254.148 109.035 299.256 72.1401C356.659 25.1885 496.934 37.4885 434.633 1.24984" stroke="#FD0073" stroke-width="1.5"/>
<path d="M379.16 126.246C322.605 120.471 233.939 108.783 279.047 71.8881C336.45 24.9366 476.726 37.2365 414.424 0.997883" stroke="#FD0073" stroke-width="1.5"/>
<path d="M358.981 127.057C302.427 121.281 213.76 109.594 258.868 72.6987C316.271 25.7471 456.547 38.0471 394.246 1.80843" stroke="#FD0073" stroke-width="1.5"/>
<path d="M338.899 128.611C282.345 122.836 193.678 111.148 238.786 74.2533C296.189 27.3018 436.465 39.6018 374.164 3.36312" stroke="#FD0073" stroke-width="1.5"/>
<path d="M318.906 130.625C262.351 124.85 173.685 113.162 218.793 76.267C276.196 29.3155 416.472 41.6154 354.17 5.37679" stroke="#FD0073" stroke-width="1.5"/>
<path d="M298.966 132.863C242.412 127.088 153.745 115.4 198.853 78.5053C256.257 31.5537 396.532 43.8537 334.231 7.61507" stroke="#FD0073" stroke-width="1.5"/>
<path d="M279.035 135.139C222.48 129.363 133.814 117.676 178.922 80.7807C236.325 33.8291 376.601 46.1291 314.299 9.89046" stroke="#FD0073" stroke-width="1.5"/>
<path d="M259.08 137.312C202.526 131.537 113.859 119.85 158.968 82.9545C216.371 36.003 356.646 48.3029 294.345 12.0643" stroke="#FD0073" stroke-width="1.5"/>
<path d="M239.078 139.281C182.523 133.506 93.8566 121.818 138.965 84.9233C196.368 37.9717 336.643 50.2717 274.342 14.033" stroke="#FD0073" stroke-width="1.5"/>
<path d="M219.019 140.975C162.465 135.199 73.798 123.512 118.906 86.6166C176.309 39.6651 316.585 51.9651 254.284 15.7264" stroke="#FD0073" stroke-width="1.5"/>
<path d="M198.909 142.342C142.354 136.567 53.6876 124.879 98.7957 87.9838C156.199 41.0323 296.475 53.3322 234.173 17.0936" stroke="#FD0073" stroke-width="1.5"/>
<path d="M178.626 143.367C122.072 137.592 33.4054 125.904 78.5135 89.0092C135.917 42.0577 276.192 54.3576 213.891 18.119" stroke="#FD0073" stroke-width="1.5"/>
<path d="M158.446 144.154C101.891 138.379 13.2247 126.691 58.3328 89.7963C115.736 42.8448 256.012 55.1447 193.711 18.9061" stroke="#FD0073" stroke-width="1.5"/>
<path d="M138.249 144.746C81.6951 138.971 -6.97156 127.283 38.1366 90.3881C95.5398 43.4366 235.815 55.7365 173.514 19.4979" stroke="#FD0073" stroke-width="1.5"/>
<path d="M118.044 145.111C61.4901 139.336 -27.1766 127.648 17.9315 90.7533C75.3347 43.8018 215.61 56.1018 153.309 19.8631" stroke="#FD0073" stroke-width="1.5"/>
<path d="M97.8285 145.223C41.2742 139.447 -47.3925 127.76 -2.28434 90.8647C55.1189 43.9131 195.394 56.2131 133.093 19.9744" stroke="#FD0073" stroke-width="1.5"/>
<path d="M77.6186 145.031C21.0643 139.256 -67.6024 127.568 -22.4943 90.6733C34.909 43.7217 175.184 56.0217 112.883 19.783" stroke="#FD0073" stroke-width="1.5"/>
<path d="M57.4203 144.48C0.866031 138.705 -87.8007 127.018 -42.6925 90.1225C14.7107 43.1709 154.986 55.4709 92.6851 19.2323" stroke="#FD0073" stroke-width="1.5"/>
<path d="M37.2592 143.498C-19.2951 137.723 -107.962 126.035 -62.8537 89.1401C-5.45042 42.1885 134.825 54.4885 72.524 18.2498" stroke="#FD0073" stroke-width="1.5"/>
<path d="M17.1713 141.969C-39.383 136.193 -128.05 124.506 -82.9416 87.6108C-25.5383 40.6592 114.737 52.9592 52.4361 16.7205" stroke="#FD0073" stroke-width="1.5"/>
<path d="M-2.77207 139.746C-59.3264 133.971 -147.993 122.283 -102.885 85.3881C-45.4817 38.4366 94.7939 50.7365 32.4927 14.4979" stroke="#FD0073" stroke-width="1.5"/>
<path d="M-22.4371 136.6C-78.9914 130.824 -167.658 119.137 -122.55 82.2416C-65.1467 35.2901 75.1288 47.5901 12.8277 11.3514" stroke="#FD0073" stroke-width="1.5"/>
<path d="M-41.525 132.404C-98.0793 126.629 -186.746 114.941 -141.638 78.0463C-84.2346 31.0948 56.0409 43.3947 -6.2602 7.15609" stroke="#FD0073" stroke-width="1.5"/>
</svg>
