<svg width="123" height="119" viewBox="0 0 123 119" fill="none" xmlns="http://www.w3.org/2000/svg">
<path d="M150.006 46.5702C162.764 10.8412 125.754 4.37573 98.0335 13.4016C81.9163 17.9061 72.9071 -0.468782 52.9401 5.12457C32.9731 10.7179 54.6522 34.582 24.0554 43.7489C-6.54148 52.9157 4.23154 104.834 30.197 107.34C56.1625 109.847 48.3844 117.871 72.9484 139.357C97.5125 160.843 143.336 136.898 134.56 107.39C125.784 77.8821 136.195 85.2474 150.006 46.5702Z" stroke="#8523AA"/>
<path d="M91.9328 70.8212C93.3506 67.4331 88.325 61.4274 83.7745 63.4961C79.6076 65.3905 75.6381 63.6122 72.8714 64.3896C65.5878 66.4363 68.0967 67.9895 64.7001 70.8081C60.567 74.238 58.0074 83.8296 66.8787 84.4846C74.1749 85.0234 71.7302 88.4059 77.0777 90.3795C82.4253 92.3531 88.8186 90.1379 89.3382 83.1011C89.5333 80.4585 89.5714 76.464 91.9328 70.8212Z" stroke="#8523AA"/>
<path d="M144.741 48.5963C156.468 15.8074 122.366 9.3837 96.7518 17.7771C81.721 22.0443 73.17 5.17822 54.7667 10.3338C35.9527 15.6047 55.889 37.4405 27.7649 46.0303C-0.426116 54.6756 9.13485 102.746 33.5463 105.084C57.8146 107.412 50.5213 115.014 73.3384 134.726C96.1555 154.438 138.394 132.468 130.463 105.003C122.503 77.9378 131.971 84.2703 144.741 48.5963Z" stroke="#8523AA"/>
<path d="M139.474 50.6244C150.17 20.7756 118.976 14.3937 95.4681 22.1547C81.5237 26.1846 73.4309 10.8273 56.5912 15.545C38.9303 20.4935 57.1238 40.301 31.4725 48.3137C5.68727 56.4375 14.0362 100.66 36.8936 102.83C59.4647 104.978 52.6563 112.159 73.7264 130.097C94.7965 148.035 133.451 128.041 126.365 102.619C119.22 77.9955 127.745 83.2954 139.474 50.6244Z" stroke="#8523AA"/>
<path d="M134.209 52.6527C143.875 25.744 115.587 19.4039 94.1864 26.5324C81.3284 30.325 73.6937 16.4764 58.4177 20.7564C41.9097 25.3824 58.3606 43.1617 35.182 50.5973C11.8025 58.1995 18.9394 98.5743 40.2428 100.576C61.1167 102.545 54.7931 109.304 74.1163 125.468C93.4395 141.632 128.509 123.614 122.268 100.234C115.939 78.0533 123.521 82.3205 134.209 52.6527Z" stroke="#8523AA"/>
<path d="M128.943 54.6811C137.578 30.7125 112.198 24.4142 92.9036 30.9102C81.132 34.4655 73.9554 22.1258 60.2431 25.9679C44.8882 30.2715 59.5963 46.0226 38.8905 52.881C17.9168 59.9617 23.8416 96.4886 43.591 98.3217C62.7677 100.112 56.929 106.449 74.5052 120.839C92.0814 135.23 123.567 119.187 118.171 97.85C112.657 78.1114 119.296 81.3458 128.943 54.6811Z" stroke="#8523AA"/>
<path d="M123.669 56.8313C131.272 35.8028 108.8 29.5463 91.6118 35.4098C80.9265 38.7279 74.2081 27.8969 62.0595 31.3012C47.8576 35.2824 60.823 49.0052 42.5899 55.2865C24.022 61.8457 28.7347 94.5246 46.9301 96.1894C64.4096 97.8014 59.0558 103.716 74.885 116.333C90.7143 128.949 118.615 114.881 114.064 95.5875C109.366 78.2912 115.062 80.4929 123.669 56.8313Z" stroke="#8523AA"/>
<path d="M118.383 59.1255C124.955 41.037 105.391 34.8224 90.3092 40.0534C80.7104 43.1342 74.4501 33.812 63.8651 36.7785C50.8163 40.4373 62.0389 52.1318 46.2786 57.836C30.1165 63.8736 33.6172 92.7047 50.2586 94.2012C66.0408 95.6342 61.1718 101.127 75.2541 111.97C89.3365 122.812 113.653 110.72 109.947 93.469C106.064 78.6149 110.817 79.784 118.383 59.1255Z" stroke="#8523AA"/>
<path d="M113.097 61.4258C118.638 46.2774 101.982 40.1045 89.006 44.7031C80.4935 47.5466 74.6914 39.7332 65.6701 42.2619C53.7743 45.5982 63.2541 55.2645 49.9666 60.3916C36.2103 65.9077 38.4989 90.8908 53.5863 92.219C67.6713 93.4732 63.2872 98.5438 75.6225 107.613C87.9579 116.682 108.689 106.565 105.829 91.3565C102.762 78.9448 106.572 79.0811 113.097 61.4258Z" stroke="#8523AA"/>
<path d="M107.809 63.7396C112.32 51.5313 98.5711 45.4002 87.7016 49.3663C80.2756 51.9725 74.9316 45.6679 67.4739 47.7587C56.7312 50.7726 64.4683 58.4107 53.6535 62.9606C42.303 67.9552 43.3795 89.0904 56.9129 90.2504C69.3008 91.3257 65.4014 95.9743 75.9899 103.269C86.5783 110.564 103.725 102.423 101.71 89.2576C99.4581 79.2882 102.325 78.3918 107.809 63.7396Z" stroke="#8523AA"/>
<path d="M102.521 66.0683C106.001 56.8001 95.1598 50.7108 86.3967 54.0445C80.057 56.4134 75.1712 51.6176 69.2772 53.2706C59.6875 55.9621 65.6818 61.5719 57.3398 65.5447C48.3951 70.0177 48.2596 87.3051 60.2389 88.2967C70.9296 89.1932 67.5151 93.4197 76.3565 98.941C85.198 104.462 98.7605 98.2961 97.5899 87.1737C96.1539 79.6465 98.078 77.7174 102.521 66.0683Z" stroke="#8523AA"/>
<path d="M97.2294 68.4268C99.6781 62.0986 91.7449 56.0511 85.0881 58.7523C79.8348 60.8839 75.4071 57.5969 71.0768 58.8121C62.6401 61.1812 66.8917 64.7627 61.0224 68.1584C54.4835 72.1099 53.1359 85.5493 63.5613 86.3727C72.5547 87.0903 69.6251 90.8948 76.7196 94.6422C83.8141 98.3897 93.792 94.199 93.4665 85.1194C92.8461 80.0345 93.8272 77.0727 97.2294 68.4268Z" stroke="#8523AA"/>
</svg>
