<svg width="86" height="118" viewBox="0 0 86 118" fill="none" xmlns="http://www.w3.org/2000/svg">
<g clip-path="url(#clip0_676_1417)">
<path d="M91.749 2.44922L75.5573 62.8773" stroke="#F74102" stroke-width="1.35999"/>
</g>
<g clip-path="url(#clip1_676_1417)">
<path d="M100.797 5.5L76.8563 63.2976" stroke="#F74102" stroke-width="1.35999"/>
</g>
<g clip-path="url(#clip2_676_1417)">
<path d="M109.369 9.70508L78.0892 63.8834" stroke="#F74102" stroke-width="1.35999"/>
</g>
<g clip-path="url(#clip3_676_1417)">
<path d="M117.32 14.9941L79.2363 64.6261" stroke="#F74102" stroke-width="1.35999"/>
</g>
<g clip-path="url(#clip4_676_1417)">
<path d="M124.513 21.2754L80.2763 65.5118" stroke="#F74102" stroke-width="1.35999"/>
</g>
<g clip-path="url(#clip5_676_1417)">
<path d="M130.824 28.4414L81.1922 66.5253" stroke="#F74102" stroke-width="1.35999"/>
</g>
<g clip-path="url(#clip6_676_1417)">
<path d="M136.146 36.3711L81.9672 67.6509" stroke="#F74102" stroke-width="1.35999"/>
</g>
<g clip-path="url(#clip7_676_1417)">
<path d="M140.384 44.9258L82.5861 68.8663" stroke="#F74102" stroke-width="1.35999"/>
</g>
<g clip-path="url(#clip8_676_1417)">
<path d="M143.474 53.9609L83.0456 70.1526" stroke="#F74102" stroke-width="1.35999"/>
</g>
<g clip-path="url(#clip9_676_1417)">
<path d="M145.356 63.3242L83.3319 71.4899" stroke="#F74102" stroke-width="1.35999"/>
</g>
<g clip-path="url(#clip10_676_1417)">
<path d="M146 72.8496L83.4403 72.8496" stroke="#F74102" stroke-width="1.35999"/>
</g>
<g clip-path="url(#clip11_676_1417)">
<path d="M145.396 82.3789L83.371 74.2132" stroke="#F74102" stroke-width="1.35999"/>
</g>
<g clip-path="url(#clip12_676_1417)">
<path d="M143.551 91.75L83.1227 75.5583" stroke="#F74102" stroke-width="1.35999"/>
</g>
<g clip-path="url(#clip13_676_1417)">
<path d="M140.5 100.797L82.7023 76.8563" stroke="#F74102" stroke-width="1.35999"/>
</g>
<g clip-path="url(#clip14_676_1417)">
<path d="M136.295 109.371L82.1166 78.0912" stroke="#F74102" stroke-width="1.35999"/>
</g>
<g clip-path="url(#clip15_676_1417)">
<path d="M131.006 117.32L81.3739 79.2363" stroke="#F74102" stroke-width="1.35999"/>
</g>
<g clip-path="url(#clip16_676_1417)">
<path d="M124.725 124.514L80.4882 80.2772" stroke="#F74102" stroke-width="1.35999"/>
</g>
<g clip-path="url(#clip17_676_1417)">
<path d="M117.559 130.824L79.4747 81.1922" stroke="#F74102" stroke-width="1.35999"/>
</g>
<g clip-path="url(#clip18_676_1417)">
<path d="M109.63 136.145L78.35 81.9662" stroke="#F74102" stroke-width="1.35999"/>
</g>
<g clip-path="url(#clip19_676_1417)">
<path d="M101.073 140.387L77.1327 82.5891" stroke="#F74102" stroke-width="1.35999"/>
</g>
<g clip-path="url(#clip20_676_1417)">
<path d="M92.0381 143.473L75.8465 83.0446" stroke="#F74102" stroke-width="1.35999"/>
</g>
<g clip-path="url(#clip21_676_1417)">
<path d="M82.6777 145.355L74.5121 83.3309" stroke="#F74102" stroke-width="1.35999"/>
</g>
<g clip-path="url(#clip22_676_1417)">
<path d="M73.1505 146L73.1505 83.4403" stroke="#F74102" stroke-width="1.35999"/>
</g>
<g clip-path="url(#clip23_676_1417)">
<path d="M63.6201 145.395L71.7858 83.37" stroke="#F74102" stroke-width="1.35999"/>
</g>
<g clip-path="url(#clip24_676_1417)">
<path d="M54.251 143.553L70.4426 83.1247" stroke="#F74102" stroke-width="1.35999"/>
</g>
<g clip-path="url(#clip25_676_1417)">
<path d="M45.2012 140.502L69.1418 82.7043" stroke="#F74102" stroke-width="1.35999"/>
</g>
<g clip-path="url(#clip26_676_1417)">
<path d="M36.6309 136.295L67.9107 82.1166" stroke="#F74102" stroke-width="1.35999"/>
</g>
<g clip-path="url(#clip27_676_1417)">
<path d="M28.6787 131.006L66.7627 81.3739" stroke="#F74102" stroke-width="1.35999"/>
</g>
<g clip-path="url(#clip28_676_1417)">
<path d="M21.4873 124.727L65.7237 80.4902" stroke="#F74102" stroke-width="1.35999"/>
</g>
<g clip-path="url(#clip29_676_1417)">
<path d="M15.1758 117.561L64.8078 79.4766" stroke="#F74102" stroke-width="1.35999"/>
</g>
<g clip-path="url(#clip30_676_1417)">
<path d="M9.85449 109.629L64.0328 78.349" stroke="#F74102" stroke-width="1.35999"/>
</g>
<g clip-path="url(#clip31_676_1417)">
<path d="M5.61426 101.074L63.4119 77.1337" stroke="#F74102" stroke-width="1.35999"/>
</g>
<g clip-path="url(#clip32_676_1417)">
<path d="M2.52539 92.0391L62.9535 75.8474" stroke="#F74102" stroke-width="1.35999"/>
</g>
<g clip-path="url(#clip33_676_1417)">
<path d="M0.642578 82.6758L62.6671 74.5101" stroke="#F74102" stroke-width="1.35999"/>
</g>
<g clip-path="url(#clip34_676_1417)">
<path d="M0 73.1504L62.5597 73.1504" stroke="#F74102" stroke-width="1.35999"/>
</g>
<g clip-path="url(#clip35_676_1417)">
<path d="M0.604492 63.6211L62.629 71.7868" stroke="#F74102" stroke-width="1.35999"/>
</g>
<g clip-path="url(#clip36_676_1417)">
<path d="M2.44922 54.252L62.8773 70.4436" stroke="#F74102" stroke-width="1.35999"/>
</g>
<g clip-path="url(#clip37_676_1417)">
<path d="M5.49902 45.2031L63.2967 69.1437" stroke="#F74102" stroke-width="1.35999"/>
</g>
<g clip-path="url(#clip38_676_1417)">
<path d="M9.70508 36.6309L63.8834 67.9107" stroke="#F74102" stroke-width="1.35999"/>
</g>
<g clip-path="url(#clip39_676_1417)">
<path d="M14.9941 28.6816L64.6261 66.7656" stroke="#F74102" stroke-width="1.35999"/>
</g>
<g clip-path="url(#clip40_676_1417)">
<path d="M21.2754 21.4863L65.5118 65.7227" stroke="#F74102" stroke-width="1.35999"/>
</g>
<g clip-path="url(#clip41_676_1417)">
<path d="M28.4404 15.1758L66.5244 64.8078" stroke="#F74102" stroke-width="1.35999"/>
</g>
<g clip-path="url(#clip42_676_1417)">
<path d="M36.3691 9.85547L67.649 64.0338" stroke="#F74102" stroke-width="1.35999"/>
</g>
<g clip-path="url(#clip43_676_1417)">
<path d="M44.9258 5.61523L68.8664 63.4129" stroke="#F74102" stroke-width="1.35999"/>
</g>
<g clip-path="url(#clip44_676_1417)">
<path d="M53.9619 2.52734L70.1536 62.9554" stroke="#F74102" stroke-width="1.35999"/>
</g>
<g clip-path="url(#clip45_676_1417)">
<path d="M63.3232 0.642578L71.4889 62.6671" stroke="#F74102" stroke-width="1.35999"/>
</g>
<g clip-path="url(#clip46_676_1417)">
<path d="M72.8495 0V62.5597" stroke="#F74102" stroke-width="1.35999"/>
</g>
<g clip-path="url(#clip47_676_1417)">
<path d="M82.3809 0.605469L74.2151 62.63" stroke="#F74102" stroke-width="1.35999"/>
</g>
<defs>
<clipPath id="clip0_676_1417">
<rect width="4.37998" height="145.999" fill="white" transform="translate(89.7783 1.92188) rotate(15)"/>
</clipPath>
<clipPath id="clip1_676_1417">
<rect width="4.37998" height="145.999" fill="white" transform="translate(98.9121 4.71875) rotate(22.5)"/>
</clipPath>
<clipPath id="clip2_676_1417">
<rect width="4.37998" height="145.999" fill="white" transform="translate(107.603 8.68555) rotate(30)"/>
</clipPath>
<clipPath id="clip3_676_1417">
<rect width="4.37998" height="145.999" fill="white" transform="translate(115.702 13.752) rotate(37.5)"/>
</clipPath>
<clipPath id="clip4_676_1417">
<rect width="4.37998" height="145.999" fill="white" transform="translate(123.07 19.834) rotate(45)"/>
</clipPath>
<clipPath id="clip5_676_1417">
<rect width="4.37998" height="145.999" fill="white" transform="translate(129.582 26.8242) rotate(52.5)"/>
</clipPath>
<clipPath id="clip6_676_1417">
<rect width="4.37998" height="145.999" fill="white" transform="translate(135.126 34.6035) rotate(60)"/>
</clipPath>
<clipPath id="clip7_676_1417">
<rect width="4.37998" height="145.999" fill="white" transform="translate(139.604 43.041) rotate(67.5)"/>
</clipPath>
<clipPath id="clip8_676_1417">
<rect width="4.37998" height="145.999" fill="white" transform="translate(142.945 51.9902) rotate(75)"/>
</clipPath>
<clipPath id="clip9_676_1417">
<rect width="4.37998" height="145.999" fill="white" transform="translate(145.09 61.3008) rotate(82.5)"/>
</clipPath>
<clipPath id="clip10_676_1417">
<rect width="4.37998" height="145.999" fill="white" transform="translate(146 70.8105) rotate(90)"/>
</clipPath>
<clipPath id="clip11_676_1417">
<rect width="4.37998" height="145.999" fill="white" transform="translate(145.662 80.3574) rotate(97.5)"/>
</clipPath>
<clipPath id="clip12_676_1417">
<rect width="4.37998" height="145.999" fill="white" transform="translate(144.079 89.7793) rotate(105)"/>
</clipPath>
<clipPath id="clip13_676_1417">
<rect width="4.37998" height="145.999" fill="white" transform="translate(141.28 98.9121) rotate(112.5)"/>
</clipPath>
<clipPath id="clip14_676_1417">
<rect width="4.37998" height="145.999" fill="white" transform="translate(137.314 107.604) rotate(120)"/>
</clipPath>
<clipPath id="clip15_676_1417">
<rect width="4.37998" height="145.999" fill="white" transform="translate(132.248 115.701) rotate(127.5)"/>
</clipPath>
<clipPath id="clip16_676_1417">
<rect width="4.37998" height="145.999" fill="white" transform="translate(126.167 123.07) rotate(135)"/>
</clipPath>
<clipPath id="clip17_676_1417">
<rect width="4.37998" height="145.999" fill="white" transform="translate(119.177 129.582) rotate(142.5)"/>
</clipPath>
<clipPath id="clip18_676_1417">
<rect width="4.37998" height="145.999" fill="white" transform="translate(111.396 135.125) rotate(150)"/>
</clipPath>
<clipPath id="clip19_676_1417">
<rect width="4.37998" height="145.999" fill="white" transform="translate(102.958 139.605) rotate(157.5)"/>
</clipPath>
<clipPath id="clip20_676_1417">
<rect width="4.37998" height="145.999" fill="white" transform="translate(94.0088 142.945) rotate(165)"/>
</clipPath>
<clipPath id="clip21_676_1417">
<rect width="4.37998" height="145.999" fill="white" transform="translate(84.7002 145.09) rotate(172.5)"/>
</clipPath>
<clipPath id="clip22_676_1417">
<rect width="4.37998" height="145.999" fill="white" transform="translate(75.1904 146) rotate(-180)"/>
</clipPath>
<clipPath id="clip23_676_1417">
<rect width="4.37998" height="145.999" fill="white" transform="translate(65.6426 145.66) rotate(-172.5)"/>
</clipPath>
<clipPath id="clip24_676_1417">
<rect width="4.37998" height="145.999" fill="white" transform="translate(56.2217 144.08) rotate(-165)"/>
</clipPath>
<clipPath id="clip25_676_1417">
<rect width="4.37998" height="145.999" fill="white" transform="translate(47.0859 141.281) rotate(-157.5)"/>
</clipPath>
<clipPath id="clip26_676_1417">
<rect width="4.37998" height="145.999" fill="white" transform="translate(38.3975 137.314) rotate(-150)"/>
</clipPath>
<clipPath id="clip27_676_1417">
<rect width="4.37998" height="145.999" fill="white" transform="translate(30.2969 132.248) rotate(-142.5)"/>
</clipPath>
<clipPath id="clip28_676_1417">
<rect width="4.37998" height="145.999" fill="white" transform="translate(22.9297 126.168) rotate(-135)"/>
</clipPath>
<clipPath id="clip29_676_1417">
<rect width="4.37998" height="145.999" fill="white" transform="translate(16.418 119.178) rotate(-127.5)"/>
</clipPath>
<clipPath id="clip30_676_1417">
<rect width="4.37998" height="145.999" fill="white" transform="translate(10.874 111.396) rotate(-120)"/>
</clipPath>
<clipPath id="clip31_676_1417">
<rect width="4.37998" height="145.999" fill="white" transform="translate(6.39453 102.959) rotate(-112.5)"/>
</clipPath>
<clipPath id="clip32_676_1417">
<rect width="4.37998" height="145.999" fill="white" transform="translate(3.05371 94.0098) rotate(-105)"/>
</clipPath>
<clipPath id="clip33_676_1417">
<rect width="4.37998" height="145.999" fill="white" transform="translate(0.90918 84.6992) rotate(-97.5)"/>
</clipPath>
<clipPath id="clip34_676_1417">
<rect width="4.37998" height="145.999" fill="white" transform="translate(0 75.1895) rotate(-90)"/>
</clipPath>
<clipPath id="clip35_676_1417">
<rect width="4.37998" height="145.999" fill="white" transform="translate(0.337891 65.6426) rotate(-82.5)"/>
</clipPath>
<clipPath id="clip36_676_1417">
<rect width="4.37998" height="145.999" fill="white" transform="translate(1.9209 56.2227) rotate(-75)"/>
</clipPath>
<clipPath id="clip37_676_1417">
<rect width="4.37998" height="145.999" fill="white" transform="translate(4.71875 47.0879) rotate(-67.5)"/>
</clipPath>
<clipPath id="clip38_676_1417">
<rect width="4.37998" height="145.999" fill="white" transform="translate(8.68555 38.3965) rotate(-60)"/>
</clipPath>
<clipPath id="clip39_676_1417">
<rect width="4.37998" height="145.999" fill="white" transform="translate(13.752 30.2988) rotate(-52.5)"/>
</clipPath>
<clipPath id="clip40_676_1417">
<rect width="4.37998" height="145.999" fill="white" transform="translate(19.833 22.9297) rotate(-45)"/>
</clipPath>
<clipPath id="clip41_676_1417">
<rect width="4.37998" height="145.999" fill="white" transform="translate(26.8223 16.418) rotate(-37.5)"/>
</clipPath>
<clipPath id="clip42_676_1417">
<rect width="4.37998" height="145.999" fill="white" transform="translate(34.6025 10.875) rotate(-30)"/>
</clipPath>
<clipPath id="clip43_676_1417">
<rect width="4.37998" height="145.999" fill="white" transform="translate(43.041 6.39648) rotate(-22.5)"/>
</clipPath>
<clipPath id="clip44_676_1417">
<rect width="4.37998" height="145.999" fill="white" transform="translate(51.9912 3.05469) rotate(-15)"/>
</clipPath>
<clipPath id="clip45_676_1417">
<rect width="4.37998" height="145.999" fill="white" transform="translate(61.3008 0.910156) rotate(-7.5)"/>
</clipPath>
<clipPath id="clip46_676_1417">
<rect width="4.37998" height="145.999" fill="white" transform="translate(70.8096)"/>
</clipPath>
<clipPath id="clip47_676_1417">
<rect width="4.37998" height="145.999" fill="white" transform="translate(80.3584 0.339844) rotate(7.50004)"/>
</clipPath>
</defs>
</svg>
