<svg width="137" height="70" viewBox="0 0 137 70" fill="none" xmlns="http://www.w3.org/2000/svg">
<g clip-path="url(#clip0_706_1119)">
<path d="M86.2148 2.33105L70.0232 62.7591" stroke="#F74102" stroke-width="1.35999"/>
</g>
<g clip-path="url(#clip1_706_1119)">
<path d="M94.6995 5.20801L70.7589 63.0057" stroke="#F74102" stroke-width="1.35999"/>
</g>
<g clip-path="url(#clip2_706_1119)">
<path d="M102.736 9.16992L71.4559 63.3482" stroke="#F74102" stroke-width="1.35999"/>
</g>
<g clip-path="url(#clip3_706_1119)">
<path d="M110.188 14.1465L72.1039 63.7784" stroke="#F74102" stroke-width="1.35999"/>
</g>
<g clip-path="url(#clip4_706_1119)">
<path d="M116.926 20.0527L72.6897 64.2891" stroke="#F74102" stroke-width="1.35999"/>
</g>
<g clip-path="url(#clip5_706_1119)">
<path d="M122.836 26.7881L73.2042 64.872" stroke="#F74102" stroke-width="1.35999"/>
</g>
<g clip-path="url(#clip6_706_1119)">
<path d="M127.816 34.2373L73.6376 65.5171" stroke="#F74102" stroke-width="1.35999"/>
</g>
<g clip-path="url(#clip7_706_1119)">
<path d="M131.778 42.2725L73.9804 66.213" stroke="#F74102" stroke-width="1.35999"/>
</g>
<g clip-path="url(#clip8_706_1119)">
<path d="M134.662 50.7559L74.2338 66.9475" stroke="#F74102" stroke-width="1.35999"/>
</g>
<g clip-path="url(#clip9_706_1119)">
<path d="M136.413 59.5439L74.3881 67.7096" stroke="#F74102" stroke-width="1.35999"/>
</g>
<g clip-path="url(#clip10_706_1119)">
<path d="M137 68.4844L74.4402 68.4843" stroke="#F74102" stroke-width="1.35999"/>
</g>
<g clip-path="url(#clip11_706_1119)">
<path d="M136.417 77.4268L74.392 69.261" stroke="#F74102" stroke-width="1.35999"/>
</g>
<g clip-path="url(#clip12_706_1119)">
<path d="M134.669 86.2148L74.2411 70.0232" stroke="#F74102" stroke-width="1.35999"/>
</g>
<g clip-path="url(#clip13_706_1119)">
<path d="M2.33716 86.2432L62.7652 70.0515" stroke="#F74102" stroke-width="1.35999"/>
</g>
<g clip-path="url(#clip14_706_1119)">
<path d="M0.586426 77.4551L62.611 69.2894" stroke="#F74102" stroke-width="1.35999"/>
</g>
<g clip-path="url(#clip15_706_1119)">
<path d="M0 68.5146L62.5597 68.5147" stroke="#F74102" stroke-width="1.35999"/>
</g>
<g clip-path="url(#clip16_706_1119)">
<path d="M0.583496 59.5732L62.608 67.7389" stroke="#F74102" stroke-width="1.35999"/>
</g>
<g clip-path="url(#clip17_706_1119)">
<path d="M2.33081 50.7852L62.7589 66.9768" stroke="#F74102" stroke-width="1.35999"/>
</g>
<g clip-path="url(#clip18_706_1119)">
<path d="M5.20801 42.2998L63.0057 66.2404" stroke="#F74102" stroke-width="1.35999"/>
</g>
<g clip-path="url(#clip19_706_1119)">
<path d="M9.16943 34.2627L63.3477 65.5426" stroke="#F74102" stroke-width="1.35999"/>
</g>
<g clip-path="url(#clip20_706_1119)">
<path d="M14.1465 26.8115L63.7785 64.8955" stroke="#F74102" stroke-width="1.35999"/>
</g>
<g clip-path="url(#clip21_706_1119)">
<path d="M20.0529 20.0742L64.2893 64.3106" stroke="#F74102" stroke-width="1.35999"/>
</g>
<g clip-path="url(#clip22_706_1119)">
<path d="M26.7871 14.1641L64.8711 63.796" stroke="#F74102" stroke-width="1.35999"/>
</g>
<g clip-path="url(#clip23_706_1119)">
<path d="M34.2363 9.18555L65.5162 63.3639" stroke="#F74102" stroke-width="1.35999"/>
</g>
<g clip-path="url(#clip24_706_1119)">
<path d="M42.2725 5.21973L66.213 63.0174" stroke="#F74102" stroke-width="1.35999"/>
</g>
<g clip-path="url(#clip25_706_1119)">
<path d="M50.757 2.33789L66.9486 62.766" stroke="#F74102" stroke-width="1.35999"/>
</g>
<g clip-path="url(#clip26_706_1119)">
<path d="M59.5444 0.587891L67.7101 62.6124" stroke="#F74102" stroke-width="1.35999"/>
</g>
<g clip-path="url(#clip27_706_1119)">
<path d="M68.4846 0V62.5597" stroke="#F74102" stroke-width="1.35999"/>
</g>
<g clip-path="url(#clip28_706_1119)">
<path d="M77.4272 0.584961L69.2615 62.6095" stroke="#F74102" stroke-width="1.35999"/>
</g>
<defs>
<clipPath id="clip0_706_1119">
<rect width="4.10998" height="136.999" fill="white" transform="translate(84.2441 1.80273) rotate(15)"/>
</clipPath>
<clipPath id="clip1_706_1119">
<rect width="4.10998" height="136.999" fill="white" transform="translate(92.8148 4.42773) rotate(22.5)"/>
</clipPath>
<clipPath id="clip2_706_1119">
<rect width="4.10998" height="136.999" fill="white" transform="translate(100.969 8.15039) rotate(30)"/>
</clipPath>
<clipPath id="clip3_706_1119">
<rect width="4.10998" height="136.999" fill="white" transform="translate(108.57 12.9043) rotate(37.5)"/>
</clipPath>
<clipPath id="clip4_706_1119">
<rect width="4.10998" height="136.999" fill="white" transform="translate(115.484 18.6104) rotate(45)"/>
</clipPath>
<clipPath id="clip5_706_1119">
<rect width="4.10998" height="136.999" fill="white" transform="translate(121.594 25.1699) rotate(52.5)"/>
</clipPath>
<clipPath id="clip6_706_1119">
<rect width="4.10998" height="136.999" fill="white" transform="translate(126.796 32.4707) rotate(60)"/>
</clipPath>
<clipPath id="clip7_706_1119">
<rect width="4.10998" height="136.999" fill="white" transform="translate(130.998 40.3877) rotate(67.5)"/>
</clipPath>
<clipPath id="clip8_706_1119">
<rect width="4.10998" height="136.999" fill="white" transform="translate(134.134 48.7852) rotate(75)"/>
</clipPath>
<clipPath id="clip9_706_1119">
<rect width="4.10998" height="136.999" fill="white" transform="translate(136.146 57.5215) rotate(82.5)"/>
</clipPath>
<clipPath id="clip10_706_1119">
<rect width="4.10998" height="136.999" fill="white" transform="translate(137 66.4443) rotate(90)"/>
</clipPath>
<clipPath id="clip11_706_1119">
<rect width="4.10998" height="136.999" fill="white" transform="translate(136.683 75.4043) rotate(97.5)"/>
</clipPath>
<clipPath id="clip12_706_1119">
<rect width="4.10998" height="136.999" fill="white" transform="translate(135.197 84.2441) rotate(105)"/>
</clipPath>
<clipPath id="clip13_706_1119">
<rect width="4.10998" height="136.999" fill="white" transform="translate(2.86548 88.2139) rotate(-105)"/>
</clipPath>
<clipPath id="clip14_706_1119">
<rect width="4.10998" height="136.999" fill="white" transform="translate(0.853027 79.4775) rotate(-97.5)"/>
</clipPath>
<clipPath id="clip15_706_1119">
<rect width="4.10998" height="136.999" fill="white" transform="translate(0 70.5547) rotate(-90)"/>
</clipPath>
<clipPath id="clip16_706_1119">
<rect width="4.10998" height="136.999" fill="white" transform="translate(0.316895 61.5957) rotate(-82.5)"/>
</clipPath>
<clipPath id="clip17_706_1119">
<rect width="4.10998" height="136.999" fill="white" transform="translate(1.80249 52.7559) rotate(-75)"/>
</clipPath>
<clipPath id="clip18_706_1119">
<rect width="4.10998" height="136.999" fill="white" transform="translate(4.42773 44.1846) rotate(-67.5)"/>
</clipPath>
<clipPath id="clip19_706_1119">
<rect width="4.10998" height="136.999" fill="white" transform="translate(8.1499 36.0293) rotate(-60)"/>
</clipPath>
<clipPath id="clip20_706_1119">
<rect width="4.10998" height="136.999" fill="white" transform="translate(12.9043 28.4297) rotate(-52.5)"/>
</clipPath>
<clipPath id="clip21_706_1119">
<rect width="4.10998" height="136.999" fill="white" transform="translate(18.6104 21.5166) rotate(-45)"/>
</clipPath>
<clipPath id="clip22_706_1119">
<rect width="4.10998" height="136.999" fill="white" transform="translate(25.1689 15.4062) rotate(-37.5)"/>
</clipPath>
<clipPath id="clip23_706_1119">
<rect width="4.10998" height="136.999" fill="white" transform="translate(32.4697 10.2051) rotate(-30)"/>
</clipPath>
<clipPath id="clip24_706_1119">
<rect width="4.10998" height="136.999" fill="white" transform="translate(40.3877 6.00098) rotate(-22.5)"/>
</clipPath>
<clipPath id="clip25_706_1119">
<rect width="4.10998" height="136.999" fill="white" transform="translate(48.7863 2.86621) rotate(-15)"/>
</clipPath>
<clipPath id="clip26_706_1119">
<rect width="4.10998" height="136.999" fill="white" transform="translate(57.522 0.854492) rotate(-7.5)"/>
</clipPath>
<clipPath id="clip27_706_1119">
<rect width="4.10998" height="136.999" fill="white" transform="translate(66.4446)"/>
</clipPath>
<clipPath id="clip28_706_1119">
<rect width="4.10998" height="136.999" fill="white" transform="translate(75.4048 0.318359) rotate(7.50004)"/>
</clipPath>
</defs>
</svg>
