<svg width="14" height="9" viewBox="0 0 14 9" fill="none" xmlns="http://www.w3.org/2000/svg">
<path fill-rule="evenodd" clip-rule="evenodd" d="M13.5403 1.32797C13.6313 1.0308 13.5403 0.812012 13.1042 0.812012H11.6642C11.2978 0.812012 11.1289 1.00087 11.0372 1.20932C11.0372 1.20932 10.3049 2.94877 9.26764 4.07866C8.93193 4.4063 8.77943 4.51025 8.59622 4.51025C8.50461 4.51025 8.36693 4.4063 8.36693 4.10859V1.32797C8.36693 0.970935 8.26599 0.812012 7.961 0.812012H5.6966C5.46786 0.812012 5.33018 0.977467 5.33018 1.13476C5.33018 1.47274 5.8491 1.55112 5.90231 2.50248V4.56958C5.90231 5.02295 5.81838 5.10513 5.63517 5.10513C5.14696 5.10513 3.95936 3.35751 3.25448 1.3579C3.11789 0.968758 2.97966 0.812012 2.61158 0.812012H1.17055C0.759143 0.812012 0.676861 1.00087 0.676861 1.20932C0.676861 1.58051 1.16507 3.42446 2.95058 5.86328C4.14093 7.52872 5.81674 8.43164 7.34334 8.43164C8.25886 8.43164 8.37186 8.23136 8.37186 7.88575V6.62688C8.37186 6.22576 8.45853 6.14575 8.74871 6.14575C8.96265 6.14575 9.32853 6.25025 10.1832 7.05303C11.1596 8.00494 11.3203 8.43164 11.8699 8.43164H13.3099C13.7213 8.43164 13.9275 8.23136 13.809 7.83514C13.6785 7.44109 13.2122 6.86907 12.594 6.19038C12.2583 5.80396 11.7547 5.3876 11.6017 5.17915C11.3883 4.91192 11.4492 4.79273 11.6017 4.55488C11.6017 4.55488 13.357 2.14599 13.5397 1.32797H13.5403Z" fill="black"/>
</svg>
