<svg width="15" height="15" viewBox="0 0 15 15" fill="none" xmlns="http://www.w3.org/2000/svg">
<path fill-rule="evenodd" clip-rule="evenodd" d="M6.92861 0C10.749 0 13.8565 3.10752 13.8565 6.9279C13.8565 8.73034 13.1648 10.3743 12.0329 11.608L14.2602 13.8307C14.4686 14.0391 14.4693 14.3764 14.2609 14.5848C14.157 14.6901 14.0197 14.742 13.8831 14.742C13.7472 14.742 13.6106 14.6901 13.5061 14.5862L11.2519 12.3383C10.0661 13.288 8.56254 13.8565 6.92861 13.8565C3.10824 13.8565 0 10.7483 0 6.9279C0 3.10752 3.10824 0 6.92861 0ZM6.92861 1.06714C3.69659 1.06714 1.06714 3.69588 1.06714 6.9279C1.06714 10.1599 3.69659 12.7894 6.92861 12.7894C10.1599 12.7894 12.7894 10.1599 12.7894 6.9279C12.7894 3.69588 10.1599 1.06714 6.92861 1.06714Z" fill="#979797"/>
</svg>
