<svg width="18" height="22" viewBox="0 0 18 22" fill="none" xmlns="http://www.w3.org/2000/svg">
<path fill-rule="evenodd" clip-rule="evenodd" d="M17.4933 17.7094C17.4933 21.28 12.5966 21.6928 8.91433 21.6928L8.65083 21.6925C6.30481 21.6868 0.333252 21.5387 0.333252 17.6877C0.333252 14.1899 5.03313 13.7224 8.68736 13.7048L9.17783 13.7045C11.5237 13.7102 17.4933 13.8583 17.4933 17.7094ZM8.91433 15.3293C4.29825 15.3293 1.95825 16.1223 1.95825 17.6877C1.95825 19.2672 4.29825 20.0678 8.91433 20.0678C13.5293 20.0678 15.8683 19.2748 15.8683 17.7094C15.8683 16.1299 13.5293 15.3293 8.91433 15.3293ZM8.91433 0.166504C12.0863 0.166504 14.6658 2.747 14.6658 5.919C14.6658 9.091 12.0863 11.6704 8.91433 11.6704H8.87967C5.71417 11.6607 3.14992 9.07909 3.16072 5.91575C3.16072 2.747 5.74125 0.166504 8.91433 0.166504ZM8.91433 1.7135C6.59492 1.7135 4.70773 3.59959 4.70773 5.919C4.70017 8.23084 6.57325 10.1158 8.88292 10.1245L8.91433 10.898V10.1245C11.2327 10.1245 13.1188 8.23734 13.1188 5.919C13.1188 3.59959 11.2327 1.7135 8.91433 1.7135Z" fill="black"/>
</svg>
