<svg width="22" height="20" viewBox="0 0 22 20" fill="none" xmlns="http://www.w3.org/2000/svg">
<path d="M14.5941 0.634223C15.2264 0.885886 15.6735 1.3395 16.0743 2.00453L16.2063 2.23404L16.6962 3.17345L16.7123 3.19969L16.727 3.22252L16.7686 3.2794C16.9918 3.52261 17.3653 3.66954 17.6119 3.66954C19.8704 3.66954 21.7151 5.44324 21.8282 7.67304L21.8337 7.89021V14.1681C21.8337 17.0628 19.5476 19.425 16.683 19.5473L16.4495 19.5523H5.55116C2.65578 19.5523 0.294252 17.2666 0.171967 14.4017L0.166992 14.1681V7.89021C0.166992 5.55952 2.05738 3.66954 4.38874 3.66954C4.63441 3.66954 5.00849 3.5224 5.23205 3.2794L5.23976 3.27032L5.24939 3.2577L5.30511 3.17224L5.79363 2.23434C6.22908 1.44294 6.70278 0.913898 7.4057 0.634121C8.69379 0.121943 13.3071 0.121943 14.5941 0.634223ZM8.00637 2.14403C7.76653 2.23949 7.54939 2.46045 7.31766 2.84351L7.21735 3.0177L6.80041 3.82381L6.69779 4.00953C6.61213 4.15201 6.52644 4.27229 6.4286 4.3789C5.92981 4.92106 5.21367 5.2342 4.57704 5.28666L4.38874 5.29454L4.21097 5.30053C2.91863 5.38792 1.88539 6.42091 1.79798 7.71254L1.79199 7.89021V14.1681C1.79199 16.1748 3.36471 17.8146 5.34491 17.9217L5.55116 17.9273H16.4495C18.4557 17.9273 20.096 16.3539 20.2031 14.3743L20.2087 14.1681V7.89021C20.2087 6.51678 19.1408 5.39189 17.7897 5.30053L17.6119 5.29454L17.4233 5.28666C16.7857 5.23419 16.0695 4.92097 15.5714 4.37818C15.4748 4.27299 15.3896 4.15356 15.3045 4.01228L15.284 3.97725L15.2596 3.93375L15.1338 3.69786L14.7829 3.018C14.546 2.5878 14.329 2.32489 14.0948 2.19275L13.9932 2.14403L13.8639 2.10106C12.749 1.78593 8.87094 1.80025 8.00637 2.14403ZM11 6.9658C13.3511 6.9658 15.2564 8.87115 15.2564 11.2222C15.2564 13.5733 13.3511 15.4786 11 15.4786C8.64894 15.4786 6.74358 13.5733 6.74358 11.2222C6.74358 8.87115 8.64894 6.9658 11 6.9658ZM11 8.5908C9.5464 8.5908 8.36858 9.76861 8.36858 11.2222C8.36858 12.6758 9.5464 13.8536 11 13.8536C12.4536 13.8536 13.6314 12.6758 13.6314 11.2222C13.6314 9.76861 12.4536 8.5908 11 8.5908ZM16.9633 6.20855C17.5616 6.20855 18.0466 6.69357 18.0466 7.29188C18.0466 7.84745 17.6284 8.30535 17.0897 8.36793L16.9633 8.37522C16.3553 8.37522 15.8702 7.89019 15.8702 7.29188C15.8702 6.73631 16.2884 6.27842 16.8272 6.21584L16.9633 6.20855Z" fill="black"/>
</svg>
