<svg width="25" height="16" viewBox="0 0 25 16" fill="none" xmlns="http://www.w3.org/2000/svg">
<path d="M13.1163 0.356709C13.0405 0.333617 12.9595 0.333581 12.8836 0.356605L12.7456 0.398476L2.5894 3.80123L1.36418 4.20518C1.02298 4.31767 1.02505 4.80105 1.36719 4.91062C1.52077 4.9598 1.62496 5.10257 1.62496 5.26382V11.8724C1.62496 12.0149 1.54673 12.1437 1.43449 12.2315C1.05614 12.5274 0.812461 12.9814 0.812461 13.5C0.812461 13.931 0.983666 14.3443 1.28841 14.6491C1.59316 14.9538 2.00648 15.125 2.43746 15.125C2.86844 15.125 3.28176 14.9538 3.58651 14.6491C3.89126 14.3443 4.06246 13.931 4.06246 13.5C4.06246 12.9814 3.81878 12.5274 3.44043 12.2315C3.3282 12.1437 3.24996 12.0149 3.24996 11.8724V6.10569C3.24996 5.83356 3.51583 5.64086 3.77445 5.72556L4.59945 5.99575C4.76381 6.04958 4.87496 6.20293 4.87496 6.37588V10.25C4.87496 10.9163 5.28121 11.4688 5.76384 11.8507C6.24646 12.2301 6.84609 12.4982 7.56596 12.7387C9.00734 13.2181 10.907 13.5 13 13.5C15.093 13.5 16.9926 13.2189 18.434 12.7379C19.1538 12.4982 19.7535 12.2301 20.2361 11.8499C20.7187 11.4688 21.125 10.9163 21.125 10.25V6.37425C21.125 6.20209 21.2351 6.04925 21.3984 5.99479L23.4105 5.32385L24.5678 4.94229C24.9341 4.82152 24.9342 4.30339 24.5679 4.18254L23.4097 3.80041L13.2535 0.398476L13.1163 0.356709ZM12.8735 2.06564C12.9556 2.03827 13.0443 2.03827 13.1265 2.06564L19.4787 4.18307C19.8434 4.30463 19.8434 4.82045 19.4787 4.94201L13.1265 7.05944C13.0443 7.08681 12.9556 7.08681 12.8735 7.05944L6.52119 4.94201C6.15652 4.82045 6.15652 4.30463 6.52119 4.18307L12.8735 2.06564ZM6.49996 7.1999C6.49996 6.92689 6.76742 6.7341 7.02642 6.82042L12.7465 8.7266L12.8841 8.76808C12.9597 8.79084 13.0402 8.79075 13.1157 8.76785L13.2543 8.72579L18.9735 6.81963C19.2325 6.73331 19.5 6.9261 19.5 7.19911V10.25C19.5 10.2582 19.5032 10.3524 19.2456 10.5547C18.9889 10.7579 18.5282 11.0138 17.9253 11.2153C16.7212 11.6159 14.9459 11.875 13 11.875C11.054 11.875 9.27871 11.6167 8.07377 11.2145C7.47252 11.0138 7.01102 10.757 6.75427 10.5547C6.4959 10.3516 6.49996 10.2582 6.49996 10.25V7.1999Z" fill="black"/>
</svg>
