<svg width="19" height="22" viewBox="0 0 19 22" fill="none" xmlns="http://www.w3.org/2000/svg">
<path fill-rule="evenodd" clip-rule="evenodd" d="M12.1401 0.166992C12.1866 0.166992 12.2322 0.17091 12.2766 0.178433L12.4249 0.179342C12.6459 0.179342 12.8571 0.269259 13.011 0.428509L18.498 6.14526C18.6432 6.29584 18.7246 6.49843 18.7246 6.70751V16.6373C18.744 19.3554 16.6271 21.5763 13.9047 21.6868L5.21746 21.6878H5.09938C2.44528 21.6279 0.316641 19.4813 0.251792 16.8531L0.251465 5.03159C0.314298 2.34384 2.53405 0.179342 5.2023 0.179342L12.0035 0.178433C12.0479 0.17091 12.0935 0.166992 12.1401 0.166992ZM11.3275 1.80391L5.20446 1.80434C3.40938 1.80434 1.91871 3.25818 1.87646 5.05109V16.6373C1.83638 18.4931 3.29888 20.0217 5.13621 20.0628H13.8722C15.6803 19.9881 17.1125 18.4855 17.0996 16.6438L17.0995 7.73191L14.9221 7.73299C12.9396 7.72758 11.3276 6.11124 11.3276 4.13091L11.3275 1.80391ZM11.9377 13.8258C12.3862 13.8258 12.7502 14.1898 12.7502 14.6383C12.7502 15.0868 12.3862 15.4508 11.9377 15.4508H6.08771C5.63921 15.4508 5.27521 15.0868 5.27521 14.6383C5.27521 14.1898 5.63921 13.8258 6.08771 13.8258H11.9377ZM9.7224 9.7611C10.1709 9.7611 10.5349 10.1251 10.5349 10.5736C10.5349 11.0221 10.1709 11.3861 9.7224 11.3861H6.08673C5.63823 11.3861 5.27423 11.0221 5.27423 10.5736C5.27423 10.1251 5.63823 9.7611 6.08673 9.7611H9.7224ZM12.9525 2.71499L12.9526 4.13091C12.9526 5.21858 13.8377 6.10474 14.9242 6.10799L16.209 6.10691L12.9525 2.71499Z" fill="black"/>
</svg>
