<svg width="22" height="22" viewBox="0 0 22 22" fill="none" xmlns="http://www.w3.org/2000/svg">
<path fill-rule="evenodd" clip-rule="evenodd" d="M7.50441 10.5654C7.52391 10.5828 7.54233 10.599 7.56074 10.6185C8.72966 11.8167 9.37424 13.4038 9.37424 15.0883V19.4043L11.7966 18.0848C11.9872 17.9808 12.1053 17.7772 12.1053 17.5529V15.0753C12.1053 13.3973 12.7434 11.8156 13.9015 10.6239L19.1416 5.05017C19.4807 4.68942 19.667 4.216 19.667 3.71659V2.70259C19.667 2.19992 19.2705 1.7915 18.7852 1.7915H2.67491C2.18849 1.7915 1.79199 2.19992 1.79199 2.70259V3.71659C1.79199 4.216 1.97833 4.68942 2.31741 5.04909L7.50441 10.5654ZM8.99183 21.2926C8.77299 21.2926 8.55633 21.2341 8.35916 21.1171C7.97783 20.8896 7.74924 20.4877 7.74924 20.0413V15.0883C7.74924 13.8588 7.29099 12.7007 6.45574 11.8134C6.43083 11.7928 6.40591 11.7701 6.38424 11.7463L1.13441 6.16384C0.510409 5.50084 0.166992 4.63092 0.166992 3.71659V2.70259C0.166992 1.304 1.29258 0.166504 2.67491 0.166504H18.7852C20.1664 0.166504 21.292 1.304 21.292 2.70259V3.71659C21.292 4.62984 20.9486 5.49867 20.3267 6.16275L15.0758 11.7463C14.2059 12.6433 13.7303 13.823 13.7303 15.0753V17.5529C13.7303 18.3719 13.2872 19.1216 12.5744 19.5116L9.58333 21.1409C9.39699 21.2417 9.19441 21.2926 8.99183 21.2926Z" fill="black"/>
</svg>
