<svg width="16" height="20" viewBox="0 0 16 20" fill="none" xmlns="http://www.w3.org/2000/svg">
<path d="M1.25041 18.5H14.7504C14.9378 18.4997 15.1186 18.5695 15.2571 18.6958C15.3956 18.822 15.4818 18.9956 15.4987 19.1822C15.5157 19.3689 15.4621 19.5551 15.3486 19.7042C15.2351 19.8534 15.0698 19.9546 14.8854 19.988L14.7504 20H1.25041C1.06299 20.0003 0.882231 19.9305 0.743731 19.8042C0.605232 19.678 0.519027 19.5044 0.502093 19.3178C0.485159 19.1311 0.538722 18.9449 0.652235 18.7958C0.765749 18.6466 0.930985 18.5454 1.11541 18.512L1.25041 18.5H14.7504H1.25041ZM7.86541 0.512L8.00041 0.5C8.17594 0.499942 8.34594 0.561457 8.48079 0.673834C8.61565 0.786211 8.70681 0.942329 8.73841 1.115L8.75041 1.25V14.438L12.7734 10.4165C12.8975 10.2923 13.0613 10.2155 13.2361 10.1996C13.411 10.1837 13.5859 10.2297 13.7304 10.3295L13.8354 10.4165C13.9594 10.5408 14.0359 10.7046 14.0515 10.8795C14.0671 11.0544 14.0209 11.2292 13.9209 11.3735L13.8339 11.477L8.53141 16.781C8.40712 16.905 8.24327 16.9815 8.0684 16.9971C7.89352 17.0127 7.7187 16.9665 7.57441 16.8665L7.46941 16.781L2.16691 11.477C2.03403 11.3447 1.95552 11.1675 1.94685 10.9802C1.93818 10.7929 1.99998 10.6091 2.12007 10.4651C2.24016 10.3211 2.40982 10.2273 2.59563 10.2022C2.78144 10.1771 2.96991 10.2225 3.12391 10.3295L3.22741 10.4165L7.25041 14.438V1.25C7.25035 1.07446 7.31186 0.904464 7.42424 0.769612C7.53662 0.63476 7.69273 0.543597 7.86541 0.512L8.00041 0.5L7.86541 0.512Z" fill="#A3A3A3"/>
</svg>
