<svg width="96" height="94" viewBox="0 0 96 94" fill="none" xmlns="http://www.w3.org/2000/svg">
<circle cx="86.9117" cy="32.4893" r="4" transform="rotate(90 86.9117 32.4893)" fill="#06C1A2"/>
<circle cx="79.4761" cy="50.4619" r="4" transform="rotate(135 79.4761 50.4619)" fill="#06C1A2"/>
<circle cx="61.5098" cy="57.9131" r="4" transform="rotate(-180 61.5098 57.9131)" fill="#06C1A2"/>
<circle cx="43.5372" cy="50.4769" r="4" transform="rotate(-135 43.5372 50.4769)" fill="#06C1A2"/>
<circle cx="36.0857" cy="32.5107" r="4" transform="rotate(-90 36.0857 32.5107)" fill="#06C1A2"/>
<circle cx="43.5212" cy="14.5381" r="4" transform="rotate(-45 43.5212 14.5381)" fill="#06C1A2"/>
<circle cx="61.4879" cy="7.08691" r="4" fill="#06C1A2"/>
<circle cx="79.4606" cy="14.5231" r="4" transform="rotate(45 79.4606 14.5231)" fill="#06C1A2"/>
<circle cx="90.8071" cy="3.17834" r="3.5" transform="rotate(45 90.8071 3.17834)" stroke="#06C1A2"/>
<circle cx="99.7965" cy="16.6247" r="3.5" transform="rotate(67.5 99.7965 16.6247)" stroke="#06C1A2"/>
<circle cx="99.805" cy="48.3542" r="3.5" transform="rotate(112.5 99.805 48.3542)" stroke="#06C1A2"/>
<circle cx="90.8217" cy="61.8057" r="3.5" transform="rotate(135 90.8217 61.8057)" stroke="#06C1A2"/>
<circle cx="77.3748" cy="70.7962" r="3.5" transform="rotate(157.5 77.3748 70.7962)" stroke="#06C1A2"/>
<circle cx="61.5107" cy="73.9561" r="3.5" transform="rotate(180 61.5107 73.9561)" stroke="#06C1A2"/>
<circle cx="45.6463" cy="70.804" r="3.5" transform="rotate(-157.5 45.6463 70.804)" stroke="#06C1A2"/>
<circle cx="32.1938" cy="61.8217" r="3.5" transform="rotate(-135 32.1938 61.8217)" stroke="#06C1A2"/>
<circle cx="23.2032" cy="48.3743" r="3.5" transform="rotate(-112.5 23.2032 48.3743)" stroke="#06C1A2"/>
<circle cx="20.0435" cy="32.5107" r="3.5" transform="rotate(-90 20.0435 32.5107)" stroke="#06C1A2"/>
<circle cx="23.1955" cy="16.6448" r="3.5" transform="rotate(-67.5 23.1955 16.6448)" stroke="#06C1A2"/>
<circle cx="32.1783" cy="3.19336" r="3.5" transform="rotate(-45 32.1783 3.19336)" stroke="#06C1A2"/>
<circle cx="90.2592" cy="82.2908" r="4" transform="rotate(150 90.2592 82.2908)" fill="#06C1A2"/>
<circle cx="76.393" cy="88.0378" r="4" transform="rotate(165 76.393 88.0378)" fill="#06C1A2"/>
<circle cx="61.5112" cy="90" r="4" transform="rotate(180 61.5112 90)" fill="#06C1A2"/>
<circle cx="46.6281" cy="88.0434" r="4" transform="rotate(-165 46.6281 88.0434)" fill="#06C1A2"/>
<circle cx="32.7592" cy="82.3015" r="4" transform="rotate(-150 32.7592 82.3015)" fill="#06C1A2"/>
<circle cx="20.8491" cy="73.1664" r="4" transform="rotate(-135 20.8491 73.1664)" fill="#06C1A2"/>
<circle cx="11.7092" cy="61.2595" r="4" transform="rotate(-120 11.7092 61.2595)" fill="#06C1A2"/>
<circle cx="5.96222" cy="47.392" r="4" transform="rotate(-105 5.96222 47.392)" fill="#06C1A2"/>
<circle cx="4" cy="32.5107" r="4" transform="rotate(-90 4 32.5107)" fill="#06C1A2"/>
<circle cx="5.9566" cy="17.6286" r="4" transform="rotate(-75 5.9566 17.6286)" fill="#06C1A2"/>
<circle cx="11.698" cy="3.75953" r="4" transform="rotate(-60 11.698 3.75953)" fill="#06C1A2"/>
</svg>
