<svg width="103" height="107" viewBox="0 0 103 107" fill="none" xmlns="http://www.w3.org/2000/svg">
<path d="M123.355 76.1119C129.641 107.844 97.6165 108.662 75.3676 97.5777C62.3384 91.7601 52.4388 106.129 36.299 98.9113C20.1592 91.6932 41.4321 74.2811 16.7746 62.7179C-7.88294 51.1547 7.70515 8.71549 29.9184 9.85351C52.1317 10.9915 46.5767 3.24933 69.9849 -11.7954C93.3931 -26.8402 129.042 -0.906167 117.945 22.8818C106.848 46.6698 116.551 41.7617 123.355 76.1119Z" stroke="#8523AA"/>
<path d="M77.4133 48.3854C78.1848 51.4205 73.194 55.8563 69.6153 53.5417C66.3381 51.4222 62.7675 52.4248 60.5314 51.4226C54.6447 48.7843 56.9552 47.7885 54.4435 44.9859C51.3871 41.5755 50.4296 33.1654 57.9937 33.7239C64.2149 34.1833 62.5766 31.0242 67.3339 30.0294C72.0912 29.0346 77.206 31.7036 76.7629 37.7035C76.5966 39.9567 76.1284 43.3305 77.4133 48.3854Z" stroke="#8523AA"/>
<path d="M119.168 73.7427C124.952 102.866 95.3857 104.013 74.8341 93.7258C62.6915 88.2444 53.3673 101.399 38.4914 94.7455C23.2837 87.9438 42.8328 72.0241 20.1885 61.2573C-2.50529 50.4352 11.5787 11.0896 32.4602 12.1749C53.2197 13.2513 48.0207 5.92571 69.7334 -7.84179C91.446 -21.6093 124.319 2.20974 114.191 24.3806C104.087 46.2109 112.866 42.0557 119.168 73.7427Z" stroke="#8523AA"/>
<path d="M114.981 71.3734C120.264 97.8876 93.155 99.3634 74.3006 89.8738C63.0445 84.7286 54.2957 96.6676 40.6838 90.5797C26.4082 84.1943 44.2334 69.767 23.6024 59.7966C2.87236 49.7157 15.4521 13.4636 35.002 14.4963C54.3076 15.5109 49.4647 8.60201 69.4818 -3.88822C89.499 -16.3785 119.596 5.32557 110.436 25.8794C101.326 45.7519 109.18 42.3497 114.981 71.3734Z" stroke="#8523AA"/>
<path d="M110.794 69.003C115.576 92.9084 90.9241 94.7131 73.767 86.0208C63.3975 81.2117 55.224 91.9355 42.8761 86.4127C29.5326 80.4437 45.6339 67.5088 27.0162 58.3348C8.24987 48.9951 19.3255 15.8365 37.5436 16.8165C55.3954 17.7694 50.9085 11.2772 69.2301 0.0642353C87.5517 -11.1487 114.873 8.44029 106.682 27.377C98.5656 45.2919 105.495 42.6425 110.794 69.003Z" stroke="#8523AA"/>
<path d="M106.607 66.6335C110.887 87.9301 88.6933 90.0637 73.2335 82.1685C63.7505 77.6957 56.1524 87.2043 45.0685 82.2466C32.657 76.6939 47.0345 65.2514 30.43 56.8738C13.6275 48.2753 23.199 18.2103 40.0853 19.1376C56.4833 20.0288 52.3525 13.9532 68.9785 4.01753C85.6046 -5.91818 110.15 11.5559 102.927 28.8755C95.8049 44.8326 101.809 42.9361 106.607 66.6335Z" stroke="#8523AA"/>
<path d="M102.427 64.1601C106.207 82.8479 86.4702 85.3104 72.7077 78.2124C64.1113 74.0758 57.0885 82.3693 47.2686 77.9767C35.7892 72.8403 48.4429 62.8902 33.8516 55.309C19.0128 47.4516 27.0801 20.4802 42.6347 21.3548C57.5789 22.1844 53.8042 16.5254 68.7347 7.86699C83.6652 -0.79145 105.435 14.5676 99.1806 30.2701C93.0519 44.2695 98.1318 43.1259 102.427 64.1601Z" stroke="#8523AA"/>
<path d="M98.2567 61.5629C101.535 77.642 84.2559 80.4333 72.1907 74.1326C64.4808 70.3322 58.0334 77.4105 49.4774 73.583C38.9302 68.863 49.86 60.4052 37.282 53.6205C24.4069 46.5042 30.9701 22.6264 45.1929 23.4483C58.6833 24.2161 55.2646 18.9739 68.4996 11.5927C81.7346 4.21151 100.729 17.4555 95.4427 31.541C90.3077 43.5827 94.463 43.192 98.2567 61.5629Z" stroke="#8523AA"/>
<path d="M94.0866 58.9599C96.8632 72.4301 82.0421 75.5504 71.6742 70.0469C64.8508 66.5826 58.9788 72.4458 51.6868 69.1833C42.0716 64.8797 51.2776 57.9143 40.7129 51.926C29.8015 45.5509 34.8606 24.7666 47.7517 25.5359C59.7882 26.242 56.7256 21.4164 68.265 15.3125C79.8045 9.20857 96.0226 20.3376 91.7053 32.8059C87.5641 42.8899 90.7946 43.2521 94.0866 58.9599Z" stroke="#8523AA"/>
<path d="M89.917 56.347C92.1924 67.2084 79.8288 70.6576 71.1582 65.9513C65.2214 62.8232 59.9247 67.4713 53.8967 64.7739C45.2137 60.8866 52.6958 55.4136 44.1443 50.2217C35.1967 44.5878 38.7516 26.897 50.3109 27.6136C60.8936 28.258 58.1871 23.8491 68.031 19.0224C77.8749 14.1958 91.3172 23.2098 87.9685 34.061C84.821 42.1873 87.1268 43.3024 89.917 56.347Z" stroke="#8523AA"/>
<path d="M85.7482 53.7196C87.5223 61.9722 77.6164 65.7503 70.643 61.8412C65.5927 59.0493 60.8714 62.4822 56.1074 60.3499C48.3564 56.8789 54.1147 52.8983 47.5765 48.5029C40.5926 43.6101 42.6433 29.0129 52.871 29.6768C61.9998 30.2596 59.6494 26.2672 67.7977 22.7179C75.9461 19.1685 86.6126 26.0675 84.2324 35.3017C82.0786 41.4702 83.4598 43.3382 85.7482 53.7196Z" stroke="#8523AA"/>
<path d="M81.5804 51.0691C82.8532 56.713 75.4049 60.8199 70.1288 57.7081C65.9651 55.2524 61.8191 57.4702 58.3191 55.9029C51.5002 52.8483 55.5346 50.3601 51.0097 46.761C45.9895 42.6095 46.5361 31.1058 55.432 31.717C63.107 32.2381 61.1126 28.6624 67.5655 26.3903C74.0183 24.1182 81.9089 28.9022 80.4973 36.5192C79.3372 40.7301 79.7937 43.351 81.5804 51.0691Z" stroke="#8523AA"/>
</svg>
