<svg width="11" height="10" viewBox="0 0 11 10" fill="none" xmlns="http://www.w3.org/2000/svg">
<path fill-rule="evenodd" clip-rule="evenodd" d="M7.63554 0.916992C9.16179 0.916992 10.3127 2.16228 10.3127 3.81366V6.96149C10.3127 7.80666 10.0138 8.57024 9.4707 9.11199C8.98349 9.59737 8.35145 9.85449 7.64287 9.85449H3.12691C2.4197 9.85449 1.78812 9.59782 1.30045 9.11199C0.757329 8.57024 0.458496 7.80666 0.458496 6.96149V3.81366C0.458496 2.16228 1.60937 0.916992 3.13562 0.916992H7.63554ZM7.63554 1.60449H3.13562C1.98291 1.60449 1.146 2.53353 1.146 3.81366V6.96149C1.146 7.62287 1.37333 8.21366 1.78583 8.62478C2.1415 8.97999 2.60579 9.16699 3.12829 9.16699H7.63554C7.63645 9.16607 7.64012 9.16699 7.64287 9.16699C8.16583 9.16699 8.62966 8.97999 8.98533 8.62478C9.39829 8.21366 9.62516 7.62287 9.62516 6.96149V3.81366C9.62516 2.53353 8.78825 1.60449 7.63554 1.60449ZM8.35787 3.72603C8.47749 3.87315 8.45504 4.08948 8.30791 4.20957L6.27108 5.86507C6.0135 6.06948 5.7055 6.17169 5.39795 6.17169C5.09133 6.17169 4.78562 6.0704 4.52987 5.86782L2.47425 4.21048C2.3262 4.09132 2.30329 3.87453 2.422 3.72694C2.54162 3.57982 2.75795 3.55644 2.90554 3.67515L4.95933 5.33065C5.21737 5.53507 5.58083 5.53507 5.8407 5.32882L7.87387 3.67607C8.02145 3.55553 8.23779 3.57844 8.35787 3.72603Z" fill="black"/>
</svg>
