<svg width="15" height="15" viewBox="0 0 15 15" fill="none" xmlns="http://www.w3.org/2000/svg">
<path d="M7.40454 2.95041C7.41444 2.91995 7.42842 2.90618 7.44009 2.89822C7.45432 2.88852 7.47505 2.88132 7.49965 2.88132C7.52424 2.88132 7.54497 2.88852 7.5592 2.89822C7.57087 2.90618 7.58485 2.91995 7.59475 2.95041L8.38467 5.38152C8.50515 5.75234 8.85071 6.0034 9.24062 6.0034H11.7968C11.8289 6.0034 11.8463 6.01244 11.8575 6.02109C11.8711 6.03162 11.8843 6.04911 11.8919 6.0725C11.8995 6.0959 11.8991 6.11784 11.8943 6.13436C11.8903 6.14793 11.8815 6.16548 11.8556 6.18431L9.78759 7.68681C9.47215 7.91599 9.34016 8.32222 9.46064 8.69304L10.2506 11.1241C10.2605 11.1546 10.2572 11.174 10.2525 11.1873C10.2467 11.2035 10.2341 11.2215 10.2142 11.236C10.1943 11.2504 10.1733 11.2568 10.1561 11.2573C10.142 11.2577 10.1226 11.2548 10.0967 11.236L8.02865 9.73345C7.71321 9.50427 7.28608 9.50427 6.97064 9.73345L4.90262 11.236C4.8767 11.2548 4.8573 11.2577 4.84317 11.2573C4.82597 11.2568 4.80496 11.2504 4.78506 11.236C4.76516 11.2215 4.75262 11.2035 4.74682 11.1873C4.74205 11.174 4.73883 11.1546 4.74873 11.1241L5.53865 8.69304C5.65913 8.32222 5.52714 7.91599 5.2117 7.68681L3.14368 6.18431C3.11777 6.16548 3.10899 6.14793 3.10503 6.13436C3.1002 6.11784 3.09975 6.0959 3.10735 6.0725C3.11495 6.04911 3.12822 6.03162 3.14183 6.02109C3.15301 6.01244 3.17043 6.0034 3.20246 6.0034H5.75867C6.14858 6.0034 6.49414 5.75234 6.61462 5.38152L7.40454 2.95041Z" stroke="#878787" stroke-width="0.8"/>
<circle cx="7.5" cy="7.5" r="7.1" stroke="#878787" stroke-width="0.8"/>
</svg>
