<svg width="15" height="15" viewBox="0 0 15 15" fill="none" xmlns="http://www.w3.org/2000/svg">
<path d="M7.33154 1.95435L7.31039 1.9449L7.28951 1.95492L1.97837 4.50343L1.95 4.51704V4.54851V5.87438V5.92438H2H13H13.05V5.87438V4.54147V4.50905L13.0204 4.49582L7.33154 1.95435ZM1.95 13V13.05H2H13H13.05V13V10.6248V10.5748H13H2H1.95V10.6248V13ZM3.28333 6.3725H3.23333V6.4225V10.0767V10.1267H3.28333H4.01667H4.06667V10.0767V6.4225V6.3725H4.01667H3.28333ZM10.9833 6.3725H10.9333V6.4225V10.0767V10.1267H10.9833H11.7167H11.7667V10.0767V6.4225V6.3725H11.7167H10.9833ZM5.85 6.3725H5.8V6.4225V10.0767V10.1267H5.85H6.58333H6.63333V10.0767V6.4225V6.3725H6.58333H5.85ZM8.41667 6.3725H8.36667V6.4225V10.0767V10.1267H8.41667H9.15H9.2V10.0767V6.4225V6.3725H9.15H8.41667ZM12.2167 5.09354H2.78333V5.03921L7.32294 2.86093L12.2167 5.0472V5.09354ZM2.78333 11.4056H12.2167V12.2192H2.78333V11.4056Z" fill="#878787" stroke="#878787" stroke-width="0.1"/>
</svg>
