<svg width="16" height="16" viewBox="0 0 16 16" fill="none" xmlns="http://www.w3.org/2000/svg">
<circle cx="8" cy="8" r="7.5" stroke="black"/>
<path d="M7.03516 7.73047H7.59766C7.81641 7.73047 7.9974 7.69271 8.14062 7.61719C8.28646 7.54167 8.39453 7.4375 8.46484 7.30469C8.53516 7.17188 8.57031 7.01953 8.57031 6.84766C8.57031 6.66797 8.53776 6.51432 8.47266 6.38672C8.41016 6.25651 8.3138 6.15625 8.18359 6.08594C8.05599 6.01562 7.89323 5.98047 7.69531 5.98047C7.52865 5.98047 7.3776 6.01432 7.24219 6.08203C7.10938 6.14714 7.00391 6.24089 6.92578 6.36328C6.84766 6.48307 6.80859 6.6263 6.80859 6.79297H5.86328C5.86328 6.49089 5.94271 6.22266 6.10156 5.98828C6.26042 5.75391 6.47656 5.57031 6.75 5.4375C7.02604 5.30208 7.33594 5.23438 7.67969 5.23438C8.04688 5.23438 8.36719 5.29557 8.64062 5.41797C8.91667 5.53776 9.13151 5.71745 9.28516 5.95703C9.4388 6.19661 9.51562 6.49349 9.51562 6.84766C9.51562 7.00911 9.47786 7.17318 9.40234 7.33984C9.32682 7.50651 9.21484 7.65885 9.06641 7.79688C8.91797 7.93229 8.73307 8.04297 8.51172 8.12891C8.29036 8.21224 8.03385 8.25391 7.74219 8.25391H7.03516V7.73047ZM7.03516 8.46484V7.94922H7.74219C8.07552 7.94922 8.35938 7.98828 8.59375 8.06641C8.83073 8.14453 9.02344 8.2526 9.17188 8.39062C9.32031 8.52604 9.42839 8.68099 9.49609 8.85547C9.56641 9.02995 9.60156 9.21484 9.60156 9.41016C9.60156 9.67578 9.55339 9.91276 9.45703 10.1211C9.36328 10.3268 9.22917 10.5013 9.05469 10.6445C8.88021 10.7878 8.67578 10.8958 8.44141 10.9688C8.20964 11.0417 7.95703 11.0781 7.68359 11.0781C7.4388 11.0781 7.20443 11.0443 6.98047 10.9766C6.75651 10.9089 6.55599 10.8086 6.37891 10.6758C6.20182 10.5404 6.0612 10.3724 5.95703 10.1719C5.85547 9.96875 5.80469 9.73438 5.80469 9.46875H6.74609C6.74609 9.63802 6.78516 9.78776 6.86328 9.91797C6.94401 10.0456 7.05599 10.1458 7.19922 10.2188C7.34505 10.2917 7.51172 10.3281 7.69922 10.3281C7.89714 10.3281 8.06771 10.293 8.21094 10.2227C8.35417 10.1523 8.46354 10.0482 8.53906 9.91016C8.61719 9.77214 8.65625 9.60547 8.65625 9.41016C8.65625 9.1888 8.61328 9.00911 8.52734 8.87109C8.44141 8.73307 8.31901 8.63151 8.16016 8.56641C8.0013 8.4987 7.8138 8.46484 7.59766 8.46484H7.03516Z" fill="black"/>
</svg>
