<svg width="16" height="16" viewBox="0 0 16 16" fill="none" xmlns="http://www.w3.org/2000/svg">
<circle cx="8" cy="8" r="7.5" stroke="#878787"/>
<path d="M9.74219 10.25V11H5.92969V10.3555L7.78125 8.33594C7.98438 8.10677 8.14453 7.90885 8.26172 7.74219C8.37891 7.57552 8.46094 7.42578 8.50781 7.29297C8.55729 7.15755 8.58203 7.02604 8.58203 6.89844C8.58203 6.71875 8.54818 6.5612 8.48047 6.42578C8.41536 6.28776 8.31901 6.17969 8.19141 6.10156C8.0638 6.02083 7.90885 5.98047 7.72656 5.98047C7.51562 5.98047 7.33854 6.02604 7.19531 6.11719C7.05208 6.20833 6.94401 6.33464 6.87109 6.49609C6.79818 6.65495 6.76172 6.83724 6.76172 7.04297H5.82031C5.82031 6.71224 5.89583 6.41016 6.04688 6.13672C6.19792 5.86068 6.41667 5.64193 6.70312 5.48047C6.98958 5.31641 7.33464 5.23438 7.73828 5.23438C8.11849 5.23438 8.44141 5.29818 8.70703 5.42578C8.97266 5.55339 9.17448 5.73438 9.3125 5.96875C9.45312 6.20312 9.52344 6.48047 9.52344 6.80078C9.52344 6.97786 9.49479 7.15365 9.4375 7.32812C9.38021 7.5026 9.29818 7.67708 9.19141 7.85156C9.08724 8.02344 8.96354 8.19661 8.82031 8.37109C8.67708 8.54297 8.51953 8.71745 8.34766 8.89453L7.11719 10.25H9.74219Z" fill="#878787"/>
</svg>
