<svg width="16" height="16" viewBox="0 0 16 16" fill="none" xmlns="http://www.w3.org/2000/svg">
<circle cx="8" cy="8" r="7.5" stroke="#878787"/>
<path d="M9.63672 7.67969V8.60938C9.63672 9.05469 9.59245 9.4349 9.50391 9.75C9.41797 10.0625 9.29297 10.3164 9.12891 10.5117C8.96484 10.707 8.76823 10.8503 8.53906 10.9414C8.3125 11.0326 8.05859 11.0781 7.77734 11.0781C7.55339 11.0781 7.34505 11.0495 7.15234 10.9922C6.96224 10.9349 6.79036 10.8451 6.63672 10.7227C6.48307 10.6003 6.35156 10.4427 6.24219 10.25C6.13542 10.0547 6.05208 9.82161 5.99219 9.55078C5.9349 9.27995 5.90625 8.96615 5.90625 8.60938V7.67969C5.90625 7.23177 5.95052 6.85417 6.03906 6.54688C6.1276 6.23698 6.25391 5.98568 6.41797 5.79297C6.58203 5.59766 6.77734 5.45573 7.00391 5.36719C7.23307 5.27865 7.48828 5.23438 7.76953 5.23438C7.99609 5.23438 8.20443 5.26302 8.39453 5.32031C8.58724 5.375 8.75911 5.46224 8.91016 5.58203C9.0638 5.70182 9.19401 5.85807 9.30078 6.05078C9.41016 6.24089 9.49349 6.47135 9.55078 6.74219C9.60807 7.01042 9.63672 7.32292 9.63672 7.67969ZM8.69531 8.74219V7.53906C8.69531 7.3125 8.68229 7.11328 8.65625 6.94141C8.63021 6.76693 8.59115 6.61979 8.53906 6.5C8.48958 6.3776 8.42708 6.27865 8.35156 6.20312C8.27604 6.125 8.1901 6.06901 8.09375 6.03516C7.9974 5.9987 7.88932 5.98047 7.76953 5.98047C7.6237 5.98047 7.49349 6.00911 7.37891 6.06641C7.26432 6.12109 7.16797 6.20964 7.08984 6.33203C7.01172 6.45443 6.95182 6.61589 6.91016 6.81641C6.87109 7.01432 6.85156 7.25521 6.85156 7.53906V8.74219C6.85156 8.97135 6.86458 9.17318 6.89062 9.34766C6.91667 9.52214 6.95573 9.67188 7.00781 9.79688C7.0599 9.91927 7.1224 10.0208 7.19531 10.1016C7.27083 10.1797 7.35677 10.237 7.45312 10.2734C7.55208 10.3099 7.66016 10.3281 7.77734 10.3281C7.92578 10.3281 8.05729 10.2995 8.17188 10.2422C8.28646 10.1849 8.38281 10.0938 8.46094 9.96875C8.53906 9.84115 8.59766 9.67578 8.63672 9.47266C8.67578 9.26953 8.69531 9.02604 8.69531 8.74219Z" fill="#878787"/>
</svg>
