<svg width="14" height="11" viewBox="0 0 14 11" fill="none" xmlns="http://www.w3.org/2000/svg">
<path d="M4.20604 0.930734L4.20613 0.930725C5.1615 0.843237 6.23339 0.920029 7 1.48365C7.76658 0.920007 8.83845 0.84256 9.79394 0.930731L9.79397 0.930734C10.942 1.03697 12.098 1.39673 12.8187 1.69692C12.9008 1.73111 12.9717 1.78676 13.0221 1.85839C13.0725 1.93013 13.1 2.01462 13.1 2.10171V2.10174V9.65669V9.65672C13.1 9.7326 13.0791 9.80676 13.0401 9.87231C13.001 9.93779 12.9453 9.99228 12.8787 10.0315C12.8122 10.0707 12.7366 10.0937 12.6588 10.0989C12.581 10.104 12.5029 10.0913 12.4313 10.0615M4.20604 0.930734L12.4698 9.96919M4.20604 0.930734C3.05802 1.03697 1.90203 1.39673 1.1813 1.69692C1.09921 1.73111 1.02829 1.78676 0.977916 1.85839C0.927463 1.93013 0.900026 2.01462 0.9 2.10171V2.10174L0.9 9.65669L0.9 9.65672C0.900023 9.7326 0.920867 9.80676 0.959938 9.87231C0.998965 9.93779 1.05471 9.99228 1.12129 10.0315C1.18783 10.0707 1.26344 10.0937 1.3412 10.0989C1.41897 10.104 1.49713 10.0913 1.5687 10.0615M4.20604 0.930734L1 9.65669C1.00002 9.71415 1.01578 9.77068 1.04584 9.82112C1.0759 9.87155 1.1193 9.91427 1.17206 9.94537C1.22482 9.97646 1.28526 9.99494 1.34784 9.9991C1.41042 10.0033 1.47314 9.99298 1.53025 9.96919M12.4313 10.0615L12.4698 9.96919M12.4313 10.0615C12.4313 10.0615 12.4313 10.0615 12.4314 10.0615L12.4698 9.96919M12.4313 10.0615C11.7772 9.78955 10.7207 9.46252 9.6998 9.36821C8.64944 9.27121 7.80857 9.43303 7.36776 9.93682L7.36772 9.93687C7.32257 9.9884 7.26595 10.0293 7.20243 10.0572C7.13893 10.0851 7.06978 10.0995 7 10.0995C6.93022 10.0995 6.86107 10.0851 6.79756 10.0572C6.73405 10.0293 6.67743 9.9884 6.63228 9.93687L6.63224 9.93682C6.19144 9.43304 5.35057 9.27121 4.29944 9.36822M12.4698 9.96919C11.809 9.69446 10.7425 9.36411 9.709 9.26864C8.653 9.17111 7.76725 9.32839 7.2925 9.87097C7.25736 9.91108 7.21284 9.94345 7.16221 9.96569C7.11158 9.98794 7.05615 9.99948 7 9.99948C6.94385 9.99948 6.88841 9.98794 6.83779 9.96569C6.78716 9.94345 6.74264 9.91108 6.7075 9.87097C6.23275 9.32839 5.347 9.17111 4.29025 9.26864M4.29944 9.36822C4.29944 9.36822 4.29945 9.36821 4.29945 9.36821L4.29025 9.26864M4.29944 9.36822L4.29025 9.26864M4.29944 9.36822C3.27931 9.46252 2.2236 9.78953 1.5687 10.0615M4.29025 9.26864C3.2575 9.36411 2.19175 9.69446 1.53025 9.96919M1.53025 9.96919L1.5687 10.0615M1.53025 9.96919L1.5686 10.0615C1.56864 10.0615 1.56867 10.0615 1.5687 10.0615M4.20598 8.48569C3.36701 8.56382 2.52324 8.77649 1.85 9.00232V2.39609C2.50418 2.15129 3.41561 1.89466 4.30016 1.81327L4.30019 1.81326C5.26966 1.72382 6.06272 1.85487 6.525 2.27357V8.76472C5.82477 8.45217 4.97846 8.4145 4.20607 8.48568L4.20598 8.48569ZM9.69981 1.81326L9.69984 1.81327C10.5844 1.89466 11.4958 2.15129 12.15 2.39609V9.00236C11.4763 8.77648 10.6331 8.56323 9.794 8.48637C9.02095 8.41455 8.17521 8.45154 7.475 8.7646V2.27357C7.93728 1.85487 8.73034 1.72382 9.69981 1.81326Z" fill="#878787" stroke="#878787" stroke-width="0.2"/>
</svg>
