<svg width="15" height="15" viewBox="0 0 15 15" fill="none" xmlns="http://www.w3.org/2000/svg">
<path d="M12.5 4.01277H10.5078V3.49787C10.5078 3.0766 10.3633 2.72163 10.0742 2.43298C9.78516 2.14433 9.42969 2 9.00781 2H6.99219C6.57031 2 6.21484 2.14433 5.92578 2.43298C5.63672 2.72163 5.49219 3.0766 5.49219 3.49787V4.01277H3.5C3.07812 4.01277 2.72266 4.15319 2.43359 4.43404C2.14453 4.71489 2 5.07376 2 5.51064V7.5C2 7.82766 2.16406 7.99149 2.49219 7.99149V11.9936C2.49219 12.2589 2.59375 12.4929 2.79688 12.6957C3 12.8986 3.23438 13 3.5 13H12.5C12.7656 13 13 12.8986 13.2031 12.6957C13.4062 12.4929 13.5078 12.2589 13.5078 11.9936V7.99149C13.8359 7.99149 14 7.82766 14 7.5V5.51064C14 5.07376 13.8555 4.71489 13.5664 4.43404C13.2773 4.15319 12.9219 4.01277 12.5 4.01277ZM6.5 3.49787C6.5 3.35745 6.54688 3.24043 6.64062 3.14681C6.73438 3.05319 6.85156 3.00638 6.99219 3.00638H9.00781C9.14844 3.00638 9.26562 3.05319 9.35938 3.14681C9.45312 3.24043 9.5 3.35745 9.5 3.49787V4.01277H6.5V3.49787ZM3.5 11.9936V7.99149H6.5V9.48936C6.5 9.77021 6.59766 10.0082 6.79297 10.2032C6.98828 10.3982 7.22656 10.4957 7.50781 10.4957H8.49219C8.77344 10.4957 9.01172 10.3982 9.20703 10.2032C9.40234 10.0082 9.5 9.77021 9.5 9.48936V7.99149H12.5V11.9936H3.5ZM7.50781 9.48936V7.99149H8.49219V9.48936H7.50781ZM12.9922 7.00851H3.00781V5.51064C3.00781 5.16738 3.17188 4.99574 3.5 4.99574H12.5C12.8281 4.99574 12.9922 5.16738 12.9922 5.51064V7.00851Z" fill="#878787"/>
</svg>
