<svg width="11" height="11" viewBox="0 0 11 11" fill="none" xmlns="http://www.w3.org/2000/svg">
<path fill-rule="evenodd" clip-rule="evenodd" d="M1.99828 2.31911C1.99919 2.31911 1.97628 2.34295 1.9474 2.37136C1.83649 2.47907 1.60686 2.7032 1.60455 3.17207C1.6009 3.82795 2.03219 5.04574 4.1089 7.12199C6.17599 9.18815 7.39194 9.62449 8.04919 9.62449H8.05882C8.5277 9.6222 8.75136 9.39211 8.85953 9.28165C8.89253 9.24774 8.91911 9.22299 8.9379 9.20741C9.3944 8.74815 9.62815 8.40624 9.62588 8.18715C9.62265 7.96349 9.34445 7.69903 8.9599 7.33328C8.83753 7.21686 8.70461 7.09036 8.56436 6.95011C8.2009 6.58757 8.02078 6.64945 7.62478 6.78878C7.07707 6.98082 6.3254 7.24207 5.15757 6.07378C3.9879 4.90503 4.24961 4.15428 4.44119 3.60657C4.57961 3.21057 4.64286 3.02999 4.27894 2.66607C4.1364 2.52399 4.00853 2.38924 3.89074 2.26549C3.52728 1.88324 3.26511 1.60686 3.04282 1.60365H3.03915C2.81961 1.60365 2.47861 1.83832 1.99599 2.32095C1.99736 2.31957 1.99782 2.31911 1.99828 2.31911ZM8.04965 10.312C6.90749 10.312 5.41836 9.40265 3.62307 7.60828C1.8209 5.80657 0.910194 4.31286 0.91703 3.1684C0.921194 2.41215 1.31765 2.02486 1.46661 1.87957C1.4744 1.86995 1.50099 1.84382 1.51015 1.83465C2.1674 1.17695 2.61061 0.911113 3.05153 0.916084C3.56349 0.923029 3.92786 1.3062 4.38894 1.79157C4.50307 1.91165 4.62682 2.04228 4.76478 2.17978C5.43394 2.84895 5.24328 3.39482 5.09019 3.83299C4.92336 4.31103 4.77899 4.72353 5.6434 5.58795C6.50874 6.45236 6.92124 6.30799 7.39744 6.13978C7.83607 5.9867 8.38057 5.79511 9.05065 6.46428C9.18632 6.59995 9.31511 6.72232 9.43382 6.83553C9.92149 7.2989 10.3065 7.66511 10.313 8.17845C10.3184 8.61615 10.0526 9.06211 9.39624 9.7189L9.10565 9.52182L9.35132 9.76199C9.20603 9.91095 8.81919 10.3079 8.06249 10.312H8.04965Z" fill="black"/>
</svg>
