<svg width="9" height="11" viewBox="0 0 9 11" fill="none" xmlns="http://www.w3.org/2000/svg">
<path fill-rule="evenodd" clip-rule="evenodd" d="M6.01133 0.916016C7.39691 0.916016 8.32767 1.90281 8.32767 3.37131V7.58614C8.32767 9.06748 7.42555 10.0309 6.0294 10.0401L2.63905 10.0414C1.25348 10.0414 0.322266 9.05464 0.322266 7.58614V3.37131C0.322266 1.88952 1.22439 0.926557 2.62054 0.917849L6.01089 0.916016H6.01133ZM6.01133 1.60352L2.62275 1.60535C1.59678 1.61177 0.983323 2.27177 0.983323 3.37131V7.58614C0.983323 8.69302 1.60251 9.35393 2.63861 9.35393L6.02719 9.35256C7.05316 9.34614 7.66662 8.68523 7.66662 7.58614V3.37131C7.66662 2.26443 7.04787 1.60352 6.01133 1.60352ZM5.92632 7.09146C6.10877 7.09146 6.25685 7.24546 6.25685 7.43521C6.25685 7.62496 6.10877 7.77896 5.92632 7.77896H2.74443C2.56197 7.77896 2.4139 7.62496 2.4139 7.43521C2.4139 7.24546 2.56197 7.09146 2.74443 7.09146H5.92632ZM5.92632 5.17265C6.10877 5.17265 6.25685 5.32665 6.25685 5.5164C6.25685 5.70615 6.10877 5.86015 5.92632 5.86015H2.74443C2.56197 5.86015 2.4139 5.70615 2.4139 5.5164C2.4139 5.32665 2.56197 5.17265 2.74443 5.17265H5.92632ZM3.95844 3.25828C4.14089 3.25828 4.28896 3.41228 4.28896 3.60203C4.28896 3.79178 4.14089 3.94578 3.95844 3.94578H2.74429C2.56184 3.94578 2.41376 3.79178 2.41376 3.60203C2.41376 3.41228 2.56184 3.25828 2.74429 3.25828H3.95844Z" fill="black"/>
</svg>
