<svg width="11" height="10" viewBox="0 0 11 10" fill="none" xmlns="http://www.w3.org/2000/svg">
<path fill-rule="evenodd" clip-rule="evenodd" d="M7.63602 0.916016C9.16227 0.916016 10.3131 2.16131 10.3131 3.81268V6.96052C10.3131 7.80568 10.0143 8.56926 9.47119 9.11101C8.98398 9.59639 8.35194 9.85351 7.64336 9.85351H3.1274C2.42019 9.85351 1.78861 9.59685 1.30094 9.11101C0.757818 8.56926 0.458984 7.80568 0.458984 6.96052V3.81268C0.458984 2.16131 1.60986 0.916016 3.13611 0.916016H7.63602ZM7.63602 1.60352H3.13611C1.9834 1.60352 1.14648 2.53256 1.14648 3.81268V6.96052C1.14648 7.62189 1.37382 8.21268 1.78632 8.62381C2.14198 8.97901 2.60628 9.16601 3.12878 9.16601H7.63602C7.63694 9.1651 7.64061 9.16601 7.64336 9.16601C8.16632 9.16601 8.63015 8.97901 8.98582 8.62381C9.39877 8.21268 9.62565 7.62189 9.62565 6.96052V3.81268C9.62565 2.53256 8.78873 1.60352 7.63602 1.60352ZM8.35836 3.72505C8.47798 3.87217 8.45552 4.08851 8.3084 4.20859L6.27157 5.86409C6.01398 6.06851 5.70598 6.17071 5.39844 6.17071C5.09182 6.17071 4.78611 6.06942 4.53036 5.86684L2.47473 4.20951C2.32669 4.09034 2.30378 3.87355 2.42248 3.72597C2.54211 3.57884 2.75844 3.55547 2.90603 3.67417L4.95982 5.32967C5.21786 5.53409 5.58132 5.53409 5.84119 5.32784L7.87436 3.67509C8.02194 3.55455 8.23827 3.57747 8.35836 3.72505Z" fill="black"/>
</svg>
