<svg width="21" height="19" viewBox="0 0 21 19" fill="none" xmlns="http://www.w3.org/2000/svg">
<path d="M14.662 2.83046C14.6106 2.73829 14.5403 2.65799 14.4558 2.59484C14.3712 2.53168 14.2743 2.48709 14.1713 2.46396C14.0683 2.44084 13.9616 2.43971 13.8582 2.46064C13.7548 2.48158 13.6569 2.52411 13.571 2.58546L13.186 2.86146C13.1058 2.91872 13.0152 2.95962 12.9192 2.98184C12.8232 3.00406 12.7238 3.00715 12.6266 2.99095C12.5294 2.97475 12.4364 2.93956 12.3528 2.8874C12.2693 2.83524 12.1968 2.76713 12.1395 2.68696C12.0823 2.60679 12.0414 2.51613 12.0191 2.42015C11.9969 2.32417 11.9938 2.22475 12.01 2.12757C12.0262 2.0304 12.0614 1.93736 12.1136 1.85378C12.1657 1.77021 12.2338 1.69772 12.314 1.64046L12.699 1.36546C12.9567 1.18142 13.2502 1.05382 13.5606 0.991006C13.8709 0.928196 14.191 0.931589 14.4999 1.00096C14.8088 1.07034 15.0996 1.20413 15.3533 1.39359C15.607 1.58306 15.8178 1.82393 15.972 2.10046L16.641 3.29946L18.72 1.22046C18.7887 1.14678 18.8715 1.08767 18.9635 1.04668C19.0555 1.00569 19.1548 0.983647 19.2555 0.98187C19.3562 0.980094 19.4562 0.998618 19.5496 1.03634C19.643 1.07406 19.7278 1.1302 19.7991 1.20142C19.8703 1.27264 19.9264 1.35748 19.9641 1.45086C20.0019 1.54425 20.0204 1.64428 20.0186 1.74498C20.0168 1.84569 19.9948 1.945 19.9538 2.037C19.9128 2.129 19.8537 2.2118 19.78 2.28046L17.4 4.66046L18.285 6.24746C18.3383 6.34308 18.4119 6.42587 18.5006 6.49003C18.5893 6.55418 18.691 6.59814 18.7984 6.61882C18.9059 6.6395 19.0167 6.6364 19.1228 6.60973C19.229 6.58307 19.3281 6.53348 19.413 6.46446L19.777 6.16846C19.8535 6.10641 19.9415 6.06004 20.0359 6.03198C20.1303 6.00393 20.2293 5.99475 20.3273 6.00496C20.4253 6.01518 20.5203 6.04459 20.6069 6.09152C20.6935 6.13844 20.77 6.20197 20.832 6.27846C20.8941 6.35496 20.9404 6.44292 20.9685 6.53734C20.9965 6.63176 21.0057 6.73078 20.9955 6.82874C20.9853 6.92671 20.9559 7.0217 20.909 7.1083C20.862 7.1949 20.7985 7.27141 20.722 7.33346L20.358 7.62846C20.1032 7.83538 19.8062 7.98404 19.4878 8.06401C19.1695 8.14399 18.8375 8.15333 18.5151 8.0914C18.1928 8.02946 17.8879 7.89774 17.6218 7.70548C17.3558 7.51323 17.135 7.26508 16.975 6.97846L16.298 5.76346L14.28 7.78046C14.2108 7.85206 14.128 7.90916 14.0365 7.94842C13.945 7.98768 13.8465 8.00833 13.747 8.00915C13.6474 8.00996 13.5486 7.99094 13.4565 7.95319C13.3643 7.91543 13.2806 7.8597 13.2102 7.78925C13.1398 7.7188 13.0842 7.63503 13.0465 7.54284C13.0088 7.45065 12.9899 7.35189 12.9908 7.2523C12.9917 7.15272 13.0125 7.05431 13.0518 6.96283C13.0912 6.87135 13.1484 6.78861 13.22 6.71946L15.538 4.40046L14.662 2.83046ZM7.34802 11.8935C5.89602 12.1765 4.25502 12.2395 2.67202 12.2495C2.32902 13.4985 2.43402 14.4075 2.73802 15.0365C3.07902 15.7395 3.73102 16.2205 4.61102 16.4395C6.40902 16.8885 8.97802 16.1765 10.686 14.2275C10.751 14.1534 10.8298 14.0928 10.9182 14.0493C11.0065 14.0057 11.1026 13.9799 11.2009 13.9735C11.2992 13.967 11.3978 13.98 11.491 14.0117C11.5843 14.0433 11.6705 14.093 11.7445 14.158C11.8186 14.2229 11.8791 14.3018 11.9227 14.3901C11.9663 14.4785 11.992 14.5745 11.9985 14.6728C12.0049 14.7711 11.992 14.8697 11.9603 14.963C11.9287 15.0563 11.879 15.1424 11.814 15.2165C9.77202 17.5465 6.64302 18.4925 4.24802 17.8945C3.03002 17.5915 1.96202 16.8735 1.38802 15.6905C0.819017 14.5155 0.802017 13.0125 1.41102 11.2555C2.23402 8.87846 3.48202 7.40346 4.72902 6.48946C5.65689 5.81051 6.7216 5.34197 7.84902 5.11646C9.40402 4.79746 10.756 5.24146 11.499 6.21746C12.254 7.20746 12.24 8.56446 11.405 9.70546C10.481 10.9675 8.95702 11.5785 7.34802 11.8935ZM8.15002 6.58546C7.2344 6.76757 6.36959 7.14742 5.61602 7.69846C4.79202 8.30246 3.91902 9.24446 3.23002 10.7425C4.59202 10.7215 5.90702 10.6455 7.06002 10.4205C8.53802 10.1325 9.60402 9.62446 10.195 8.81946C10.683 8.15146 10.613 7.52846 10.307 7.12646C9.99102 6.71146 9.28102 6.35446 8.15002 6.58646V6.58546Z" fill="black"/>
</svg>
