<svg width="24" height="24" viewBox="0 0 24 24" fill="none" xmlns="http://www.w3.org/2000/svg">
<path fill-rule="evenodd" clip-rule="evenodd" d="M11.7274 0.0834961C14.8398 0.0834961 17.7648 1.29358 19.9618 3.49166C24.5032 8.033 24.5032 15.4213 19.9618 19.9627C17.7356 22.19 14.738 23.3687 11.7014 23.3687C10.0461 23.3687 8.37992 23.0187 6.82101 22.2972C6.36167 22.1131 5.93159 21.9397 5.62284 21.9397C5.26751 21.9419 4.78976 22.1066 4.32826 22.2658C3.38142 22.5908 2.20276 22.996 1.33067 22.1272C0.461839 21.2572 0.862673 20.0818 1.18551 19.1361C1.34476 18.6702 1.50834 18.1892 1.50834 17.8252C1.50834 17.5262 1.36426 17.1449 1.14326 16.5957C-0.885827 12.2136 0.0523394 6.93233 3.49409 3.49275C5.69109 1.29466 8.61501 0.0834961 11.7274 0.0834961ZM11.7285 1.7085C9.04942 1.7085 6.53284 2.75066 4.64242 4.64216C1.68059 7.60183 0.87459 12.1464 2.63501 15.9522C2.88851 16.5794 3.13334 17.1904 3.13334 17.8252C3.13334 18.459 2.91559 19.0971 2.72384 19.6604C2.56567 20.1241 2.32626 20.8239 2.48009 20.9777C2.63067 21.1337 3.33484 20.8878 3.79959 20.7286C4.35751 20.5379 4.99017 20.3191 5.61742 20.3147C6.24576 20.3147 6.83834 20.5531 7.46559 20.8055C11.3082 22.5822 15.8528 21.774 18.8135 18.8143C22.72 14.9057 22.72 8.54758 18.8135 4.64108C16.922 2.74958 14.4065 1.7085 11.7285 1.7085ZM16.0043 11.0931C16.6023 11.0931 17.0877 11.5773 17.0877 12.1764C17.0877 12.7755 16.6023 13.2598 16.0043 13.2598C15.4063 13.2598 14.9166 12.7755 14.9166 12.1764C14.9166 11.5773 15.3966 11.0931 15.9946 11.0931H16.0043ZM11.6614 11.0931C12.2594 11.0931 12.7448 11.5773 12.7448 12.1764C12.7448 12.7755 12.2594 13.2598 11.6614 13.2598C11.0634 13.2598 10.5738 12.7755 10.5738 12.1764C10.5738 11.5773 11.0526 11.0931 11.6517 11.0931H11.6614ZM7.31815 11.0931C7.91615 11.0931 8.40148 11.5773 8.40148 12.1764C8.40148 12.7755 7.91615 13.2598 7.31815 13.2598C6.72015 13.2598 6.23048 12.7755 6.23048 12.1764C6.23048 11.5773 6.7104 11.0931 7.3084 11.0931H7.31815Z" fill="black"/>
</svg>
